<svg xmlns="http://www.w3.org/2000/svg" viewBox="0 0 135.99 140.51"><defs><style>.cls-1{fill:#3caf49;}.cls-2,.cls-3,.cls-4{fill:#aeffb4;}.cls-3{font-size:27.34px;}.cls-3,.cls-4{font-family:GothamBlack, Gotham Black;}.cls-4{font-size:11.14px;}.cls-5{fill:#51973b;}.cls-6{fill:#fefefe;stroke:#ccc;stroke-miterlimit:10;stroke-width:2px;}.cls-7{fill:#f2c05a;}.cls-8{fill:#d8a955;}</style></defs><title>cash</title><g id="Layer_2" data-name="Layer 2"><g id="Layer_8" data-name="Layer 8"><path class="cls-1" d="M132.73,40.22A340.67,340.67,0,0,1,94.92,83.39a340.7,340.7,0,0,1-48,38.58L3.75,80.71A269.93,269.93,0,0,0,50.14,45.85,270,270,0,0,0,89.29,0Z"/><path class="cls-2" d="M53.64,109.46l.11.13A442.48,442.48,0,0,0,91.71,78c11.8-11,20.24-21.52,29.21-31.73l-.06-.06-.06-.06c-3.35-3.63-3.46-9-.25-12l.11-.1L97,13.18l-.11.11c-3.21,3-8.52,2.51-11.87-1.12A263.75,263.75,0,0,1,56,45.59C43.32,58,28.74,68.1,17.9,75.44a9.4,9.4,0,0,1,2.58,6.25,7.62,7.62,0,0,1-2.33,5.78l23.62,20.87C45,105.33,50.29,105.83,53.64,109.46Z"/><path class="cls-1" d="M59.47,70a15.63,15.63,0,0,1,.8-21.94A15.29,15.29,0,0,1,82,48.86a15.62,15.62,0,0,1-.8,21.94A15.29,15.29,0,0,1,59.47,70Z"/><path class="cls-1" d="M38.65,89.52A7.71,7.71,0,0,1,39,78.7a7.55,7.55,0,0,1,10.73.4,7.71,7.71,0,0,1-.39,10.83A7.55,7.55,0,0,1,38.65,89.52Z"/><path class="cls-1" d="M92.05,39.45a7.71,7.71,0,0,1,.39-10.83,7.55,7.55,0,0,1,10.73.4,7.71,7.71,0,0,1-.39,10.83A7.55,7.55,0,0,1,92.05,39.45Z"/><text class="cls-3" transform="matrix(0.73, -0.68, 0.68, 0.74, 71.81, 73.82)">T</text><text class="cls-4" transform="matrix(0.73, -0.68, 0.68, 0.74, 97.72, 39.33)">T</text><text class="cls-4" transform="matrix(0.73, -0.68, 0.68, 0.74, 44.36, 90.01)">T</text><path class="cls-2" d="M88.55,12.73a4,4,0,0,1,.2-5.58,3.89,3.89,0,0,1,5.53.2,4,4,0,0,1-.2,5.58A3.89,3.89,0,0,1,88.55,12.73Z"/><path class="cls-2" d="M121,43a4,4,0,0,1,.2-5.58,3.89,3.89,0,0,1,5.53.2,4,4,0,0,1-.2,5.58A3.89,3.89,0,0,1,121,43Z"/><path class="cls-2" d="M44.58,114.62a4,4,0,0,1,.2-5.58,3.89,3.89,0,0,1,5.53.2,4,4,0,0,1-.2,5.58A3.89,3.89,0,0,1,44.58,114.62Z"/><path class="cls-2" d="M11.86,84.05a4,4,0,0,1,.2-5.58,3.89,3.89,0,0,1,5.53.2,4,4,0,0,1-.2,5.58A3.89,3.89,0,0,1,11.86,84.05Z"/><path class="cls-5" d="M3.75,80.71C3.58,86,.18,92.87,0,98.14l46.66,42.37a457.8,457.8,0,0,0,56.85-45.85,457.11,457.11,0,0,0,32.18-33.79l-2.95-20.65q-6.27,8.17-13.41,16.63C110.65,67.09,102,76.37,93.58,84.73c-6.45,6.16-13.68,12.57-21.72,19-8.64,6.95-17,13-24.94,18.23Z"/><path class="cls-6" d="M27.8,14.82a11.37,11.37,0,0,0-3,8.57c.53,5.89,5.67,9.19,6.29,9.57-3-.45-3.09-.48-6.38-3.54-3.56,4.48-1.43,8,8.75,14.24-1,1-2.13.11-3.17.09-1.74,0-1.8,0-2.62-.34-1.49-.68-1.68-2.32-2.07-2.27s-.92,2.31,0,4.2c1,2,3,2.6,9.17,4.89,3,1.12,9.58,3.62,15.66,4.42a5.27,5.27,0,0,0,3.47-.46c1.45-.9,1.71-2.61,1.87-3.77.11-.83.35-3.36-1.64-7.65A28.33,28.33,0,0,0,50,36.42a46.26,46.26,0,0,0-8.51-7.78A67.23,67.23,0,0,1,27.8,14.82Z"/><polygon class="cls-7" points="39.12 55.8 82.45 94.92 104.31 75.35 59.26 36.74 39.12 55.8"/><polygon class="cls-8" points="104.04 75.08 104.14 94.39 82.68 113.23 82.59 94.92 104.04 75.08"/><path class="cls-6" d="M134.55,99.6a12.71,12.71,0,0,1-6.56,6.57,13.08,13.08,0,0,1-11.13-.78c1.61,2.35,1.65,2.37,5.71,3.69-2.66,5.1-6.64,4.95-16.32-.64-.48,1.3.74,1.84,1.17,2.7.72,1.44.68,1.52,1.34,2,1.2.93,2.76.32,2.87.67s-1.73,1.86-3.78,2c-2.22.16-3.53-1.28-8-5.4-2.2-2-7-6.33-10.16-11.06a4.56,4.56,0,0,1-1-3.13c.24-1.64,1.69-2.67,2.67-3.34.71-.49,2.91-1.88,7.57-2.23a27.78,27.78,0,0,1,7.35.45,41.91,41.91,0,0,1,10.38,3.48A61.84,61.84,0,0,0,134.55,99.6Z"/></g></g></svg>