<svg xmlns="http://www.w3.org/2000/svg" viewBox="0 0 216.85 216.39"><defs><style>.cls-1{fill:none;stroke:#e7808e;stroke-miterlimit:10;stroke-width:4px;}</style></defs><title>finger-print</title><g id="Layer_2" data-name="Layer 2"><g id="Layer_8" data-name="Layer 8"><path class="cls-1" d="M217.83,107.88"/><path class="cls-1" d="M4.12,129.76A106.63,106.63,0,0,1,87.58,4.15C145.31-7.49,204.74,29.31,213.18,87.6c.76,5.22.69,6.26,1.72,10.51"/><path class="cls-1" d="M81.13,211.71a119.86,119.86,0,0,0,27.56-103"/><path class="cls-1" d="M96.05,214.58A133.08,133.08,0,0,0,121.75,106h0a13.4,13.4,0,1,0-26.27,5.3l.09,0A106.61,106.61,0,0,1,67.34,207"/><path class="cls-1" d="M112.06,215.26A146.27,146.27,0,0,0,134.82,103.4h0A26.72,26.72,0,1,0,82.46,114h.08a93.34,93.34,0,0,1-27.81,86.73"/><path class="cls-1" d="M129.06,213.33a159.43,159.43,0,0,0,18.82-112.56h0a40,40,0,1,0-78.5,15.83h.07A80,80,0,0,1,43.36,193"/><path class="cls-1" d="M146.91,208.22A172.61,172.61,0,0,0,161,98.13h0A53.36,53.36,0,1,0,56.35,119.22h.06a66.72,66.72,0,0,1-23.18,64.86"/><path class="cls-1" d="M24.4,174.06a53.39,53.39,0,0,0,18.94-52.22h-.05A66.68,66.68,0,1,1,174,95.5h0a185.82,185.82,0,0,1-8.56,103.45"/><path class="cls-1" d="M184.35,183.79a199.19,199.19,0,0,0,2.74-90.93h0A80,80,0,1,0,30.24,124.49h0A40.07,40.07,0,0,1,16.87,163"/><path class="cls-1" d="M202.77,158.8a213.13,213.13,0,0,0-2.62-68.57h0A93.31,93.31,0,1,0,17.18,127.12h0a26.71,26.71,0,0,1-6.62,23.49"/></g></g></svg>