<?xml version="1.0" encoding="UTF-8"?>
<svg enable-background="new 0 0 630.1 859" version="1.1" viewBox="0 0 630.1 859" xml:space="preserve" xmlns="http://www.w3.org/2000/svg" xmlns:xlink="http://www.w3.org/1999/xlink">
<style type="text/css">
	.st0{clip-path:url(#b);}
	.st1{fill:url(#a);}
	.st2{fill:#26397F;}
</style>
<title>Globe</title>
					<defs>
						<rect id="c" x="-5.1" y="-8" width="633" height="867"/>
					</defs>
					<clipPath id="b">
						<use xlink:href="#c"/>
					</clipPath>
					<g class="st0">
							<radialGradient id="a" cx="404.57" cy="440.5" r="448.75" gradientTransform="matrix(1.01 0 0 -1 45.74 888)" gradientUnits="userSpaceOnUse">
							<stop stop-color="#fff" offset="0"/>
							<stop stop-color="#1B2B68" offset="0"/>
							<stop stop-color="#02084E" offset=".74"/>
							<stop stop-color="#1C2C69" offset=".91"/>
						</radialGradient>
						<ellipse class="st1" cx="452.8" cy="447.5" rx="452.8" ry="447.5"/>
						<path class="st2" d="m855.3 264.3l-4.3-10 4.3 10c0.1 0.1 0.1 0 0 0m-4.3-10c-4-8.3-9.9-18.7-14.6-27.3l-0.7-1.3c6.8 11 9.1 15.9 15.3 28.6m-15.4-28.7c0 0.1 0.1 0.1 0.1 0.2l0.7 1.3c-0.2-0.6-0.5-1.1-0.8-1.5m58.8 198.4c-0.1-1.4-0.2-2.8-0.3-4.3 0.1 1.4 0.2 2.8 0.3 4.5v-0.2m-0.4-5.4c-0.2-1.8-0.3-3.5-0.4-5.3 0.2 2.2 0.4 4.3 0.5 6.4 0.1-0.4 0-0.8-0.1-1.1m-2.4-25l-0.6-6.2c0.2 2.7 0.5 5.7 0.9 8.8-0.1-0.8-0.2-1.7-0.3-2.6m-520.5-384.1l-0.3 0.1 4.8-0.8h-0.1l-4.4 0.7m-3 0.5l-3.2 0.6 1-0.2c0.7-0.1 1.5-0.2 2.2-0.4m-57.9 14.3c-0.2 0.1-0.5 0.1-0.7 0.2 0.3-0.1 0.5-0.1 0.7-0.2m8.7-2.7c0.9-0.2 1.7-0.5 2.6-0.7h-0.1l-0.7 0.2-0.4 0.1-1.4 0.4m3.8-1.1c-0.4 0.1-0.8 0.2-1.2 0.4-0.9 0.2-1.8 0.5-2.6 0.7l3.8-1.1m-2.1 0.6l1-0.3c0.7-0.2 1.4-0.4 2.2-0.6l-3 0.9-0.6 0.1 0.4-0.1m3.2-0.9l4.1-1.1h0.2l2-0.5-0.7 0.2c-1.8 0.5-3.7 1-5.6 1.4-0.8 0.3-1.5 0.5-2.2 0.7l2.2-0.7m10.6-2.8c1.1-0.2 2-0.5 2.9-0.7l3-0.8h-0.3l-0.3 0.1-3.6 0.9-0.9 0.2-0.8 0.3m8.8-2.2l0.9-0.2 2.8-0.6 1.1-0.2-2.7 0.7-1.1 0.3-1.4 0.3 0.4-0.3m8.3-1.9l1.1-0.2 4.3-0.9h-0.1l-2 0.4-4 0.9-0.3 0.1-1.8 0.3 2.8-0.6m5.4-1.1h0.3-0.3m14.2-2.6l5.1-0.8 1.6-0.3c-1.4 0.2-2.8 0.4-4.1 0.7h-0.3l-4 0.7 1.7-0.3m7-1.2h-0.2 0.2m-24.4 4.6l-0.4 0.1-0.3 0.1 0.7-0.2 1.7-0.4 2.4-0.5 2.8-0.5-0.5 0.1 3.1-0.6 3.2-0.6-0.5 0.1h-0.2c-3.1 0.6-6.2 1.1-9.2 1.8-1.1 0.2-2.1 0.4-3.1 0.6h0.3m-351.8 474.7l-0.1-1 0.2 2.1-0.1-1.1m-0.2-2c-0.1-1.1-0.2-2.2-0.3-3.2 0 0.3 0 0.6 0.1 0.8l0.3 3.4-0.1-1m-1.3-24.7l0.3 6c0.2 5.1 0.3 8.2 0.5 12v0.5c-0.4-5.5-0.6-12-0.8-18.5m26.7-167.1c1.4-3.9 3.2-8.3 5.1-12.8-1.1 2.8-2.2 5.4-3.1 8l-2 4.8m12.5-30.4c-0.2 0.6-0.5 1.1-0.7 1.7-2.5 5.5-4.7 10.8-6.8 15.9-1.8 4.5-3.6 8.8-5.1 12.8 5.1-13.7 7.1-18.9 12.6-30.4 0.1-0.1 0.1-0.1 0.1-0.2l-0.5 1.3-0.3 0.7c0.3-0.7 0.5-1.2 0.7-1.8m16.4-32.5c0.5-0.9 1-1.7 1.5-2.6l-1.2 2.1-0.3 0.5c0.5-0.9 1-1.7 1.5-2.6-0.5 0.9-1 1.8-1.5 2.6 6.2-11 9-16 14.6-24.1-4.7 7.3-9.1 14.5-13.1 21.5-0.5 0.9-1 1.8-1.5 2.6m105.8-123.7c0.8-0.6 1.5-1.2 2.2-1.8 1.3-1.1 2.6-2.1 3.9-3.2l0.2-0.6-2.6 1.7-5.4 4.6 0.4 0.2 1.3-0.9m6.4-6.6l0.3-0.2 2.2-1.8c-3.5 2.4-6.8 4.7-6.9 5.2 0.3-0.1 3.1-2.2 4.4-3.2m108.1-62.6l2.4-0.7 4.9-2.3v-0.4l-0.3-0.1-6 2.5-4.6 2v0.5l3.6-1.5m557.5 500c0.2-1 0.1-2.1 0.2-3.1l0.3-1.5s0.2-1 0.2-1.5c-0.1-2.5-0.6-5-1.5-7.3-0.3-0.8-0.3-0.8 0.1-4.5l-1-0.3-0.7 0.8-0.6 1.8c-0.3 1.2-0.4 2.4-0.4 3.7 0.1 0.4 0.1 0.8 0 1.2l-0.3 0.7c0 0.8-0.1 1.6-0.2 2.4-1.2 3.2-1.2 3.2-1.3 3.6-0.6 3.6-0.9 5.2-0.9 6.8 0.2 1.2 0.8 2.4 1.7 3.3 0.4 0.3 0.4 0.3 3.2-0.2 0.4-2 0.8-4 1.2-5.9m19 96.8l3.8-8.3s0.7-1.8 0.8-2.3c-1 0.8-2.1 1.4-3.3 1.9-0.2 0.6-0.5 1.1-0.7 1.7l0.5-0.1c-0.5 1-0.9 2-1.3 2.9l0.4-0.1c-0.2 0.7-0.2 0.7-0.9 2.5-0.2 0.3-0.3 0.7-0.3 1 0.4-0.4 0.7-0.9 1-1.4 0.3 0 0.3-0.6 0.8-0.5-0.2 0.9-0.8 1.6-1 2.5l0.2-0.3h0.1c-0.4 1-0.8 2-1.3 3l-0.1 0.2c0.4-1 0.8-1.8 1.3-2.7m0.9-14.2c0.2-0.4 0.4-0.9 0.6-1.3l0.3-1c0.2-0.5 0.3-0.9 0.6-1.4-0.2 0.4-0.5 0.8-0.7 1.2s-0.4 1-0.6 1.4l-0.2 1.1m19-35.8l7.6-25.7c-1.1 4.2-1.2 4.5-1.4 4.8-0.7 2.5-1.4 4.9-2.1 7.3-0.2 0.5-0.2 0.5-0.4 0.7 0.1-0.8 0.3-1.6 0.5-2.4l0.2-0.7-0.2 0.2c-3.3 7.3-4.4 15.3-7 22.8l-0.2 0.7c-0.2 0.5-0.3 0.9-0.5 1.4-1.6 4.4-1.6 4.4-2.6 8-1.1 2.9-1.1 3-1.2 3.3l0.1-0.2 7.2-20.2m-15.8 23c0.7-1.8 1.4-3.6 2.1-5.4 0-0.4 0-0.8 0.1-1.3 0.2-0.8 0.2-0.9-0.1-1.1l-0.3 0.1c0.1-1.4 0.4-2.8 0.9-4.1 1.8-6.1 1.8-6.1 1.7-6.8-1.9 4.6-3.1 9.4-3.6 14.3 0.2 0.3 0.2 0.3-0.1 1.7-0.4 0.9-0.6 1.9-0.7 2.8v-0.2m5.3-30.4c0.1-0.4 0.2-0.8 0.2-1.2-0.1 0.4-0.2 1-0.3 1.4l0.1-0.2m-0.2 5.7l0.4-1.3c0.3-0.9 0.5-1.9 0.7-2.9l0.2-3.5-0.3-0.6v0.2c-0.7 1.4-1 3-0.9 4.5s-0.1 2.9-0.4 4.3l0.3-0.7m1.2-12.5c0.2-0.5 0.4-0.9 0.5-1.4 0-0.4-0.2-0.8-0.2-1.3 0.1-0.8 0.2-1.5 0.4-2.2l-0.1-1c-0.2 0.6-0.4 1.1-0.5 1.7s-0.2 1.2-0.3 1.8-0.3 1.3-0.4 2l0.3 0.5 0.3-0.1m1.6 32.1c0-0.1 3.1-8.3 2.3-9.3-0.5 0.7-0.5 0.7-1.6 3.5l-0.5 0.1c2-6 2-6 2.1-6.5l-0.3 0.1-0.3-0.2c0.2-1.3 0.4-2.7 0.7-4 0.8-2.4 1.5-4.7 2.1-7l-0.3 0.2-0.4-0.2c0.4-3.1 1.7-6 1.9-9.2l-0.4 0.7h-0.6c-0.2-0.3-0.3-0.7-0.1-2.6l0.3-1.4s-0.4-9.5 0.2-12.2c-0.2-0.2-0.5-0.6 0.2-5.3-0.7 0.5-0.9 1.7-2.1 1.5-0.1-1.4-0.4-2.8-0.9-4.1-0.6 0.7-0.8 1.1-1 3.7-0.3 3.5-0.3 3.5 0.5 8.5 0.5 3.3-1 6.4-1.1 9.7v0.5l0.7 0.3c0.4 1.4-0.7 5-1.5 8.2-0.1 0.5-0.3 1-0.4 1.4-0.8 3.7-0.7 7.5-1.2 11.2s-1.9 7.1-2.8 10.6c-1.8 6.9-2.7 13.9-4.9 20.7 0.9-1.4 2.2-2.4 2.9-3.9 0.2-0.5 0.4-0.9 0.5-1.3 0-0.1 2.4-5.7 3.3-8.1 0.2-0.5 0.4-0.9 0.5-1.4 0.9-2.2 1-2.3 1.4-2.7v0.8c0.3-0.8 0.6-1.5 0.8-2.3m-286.5-579.8c-3-0.9-3.6-1-3.9-1.1l-0.8-0.2 1 0.3c0.6 0.2 1.2 0.4 1.9 0.5 0.6 0.2 1.2 0.4 1.8 0.5l1.1 0.4h0.1l-1.2-0.4m12.2 5.9c-0.7-0.3-4.5-1.7-4.8-1.7h-0.1c0.8 0.3 1.6 0.6 2.4 1 0.5 0.2 1.1 0.4 1.7 0.6l-0.5-0.2c0.5 0.1 0.9 0.2 1.3 0.3m-20-8c-0.5-0.2-1.1-0.4-1.7-0.5s-1.2-0.4-1.8-0.5h-0.2c-2.2-0.7-4.4-1.3-6.6-1.7 0.9 0.3 1.8 0.5 2.7 0.8-2.4-0.5-4.8-1.3-7.2-1.9 2.7 0.8 5.5 1.5 8.2 2.4h-0.1c14.9 4.6 14.9 4.6 15.7 4.9-1.6-0.7-3.4-0.9-4.9-1.8l0.7 0.2 0.2-0.1c-0.5-0.2-1-0.3-1.5-0.5h0.2l-1-0.4h0.4c-0.3-0.1-1.3-0.4-3.1-0.9m-18.8-4.5l-6.4-1.4c1 0.3 2.1 0.5 3.1 0.8-0.9-0.1-1.8-0.3-2.6-0.6-0.7-0.2-1.5-0.3-2.2-0.4 1 0.2 2 0.4 3 0.8h-0.2c0.8 0.3 1.6 0.6 2.4 0.7h-0.1c1 0.3 1.9 0.6 2.8 0.8l1 0.3c2 0.4 2 0.4 6.9 1.8l0.8-0.1c1.3 0.2 2.5 0.7 3.8 1v-0.1l0.5 0.1h0.2c-1.1-0.4-1.2-0.4-2.4-0.8-1-0.2-1.9-0.5-3-0.8-2.6-0.6-5.2-1.2-7.8-2.1m-18.2-4l-0.8-0.2-0.3-0.1h-0.4c-4.2-0.9-5.4-1-5.9-1.1 1.4 0.5 3 0.4 4.4 1.1h-0.1c1.9 0.5 3.8 0.6 5.7 1.3h-0.1c1.5 0.4 2.9 0.7 4.4 1l-0.5-0.2h0.1c1 0.2 1.9 0.5 2.9 0.6 2 0.4 2 0.4 2.1 0.4-0.7-0.1-1.5-0.3-2.2-0.6h0.2c-0.6-0.1-1.1-0.3-1.7-0.5h0.2c-0.1-0.1-0.1-0.1-3.3-0.8-1-0.2-1.9-0.4-2.8-0.6h0.1c-0.7 0-1.3-0.1-2-0.3m16.9 4.5l-1-0.3-1.4-0.4c-0.5-0.1-1-0.2-1.4-0.4l0.2 0.1c-0.8-0.1-1.6-0.4-2.5-0.5h-0.1l-0.4-0.1 0.6 0.2h-0.2c1.6 0.5 3.2 0.9 4.9 1.1h0.1c0.7 0.1 1.4 0.3 2.1 0.5 0.8 0.2 0.8 0.2 1 0.2 0 0.2-1.1-0.2-1.9-0.4m-22.8-5.1c-0.1 0-3.6-0.8-4.2-0.8l0.9 0.2c-0.4 0-0.8-0.1-1.2-0.2l1.3 0.3c0.9 0.2 1.9 0.4 2.8 0.6s1.8 0.4 2.7 0.5c-0.5-0.2-1.3-0.4-2.3-0.6m56.7 63.7c-0.4-0.8-0.7-0.8-1.8-1-0.3 0-0.6-0.2-0.8-0.4-0.5-0.4-0.8-0.9-1.2-1.3h-4.2l0.6 1 1 0.8c1 1.2 2 2.5 3 3.8h2c0.7 0 0.6-0.2 0.3-0.8-0.3-0.4-0.3-0.4-0.2-0.6h0.4l0.9-0.4 0.3-0.1-0.3-1m-16.8-44.5c-1.7-0.9-3.5-1.5-5.4-1.8h-0.3l-0.3 0.1h-0.6c0.6 1 1.8 1 2.7 1.7v0.2c-0.6-0.1-0.6-0.1-0.8 0 0.2 0.3 0.6 0.5 0.7 0.8h-1.1v0.2l0.1 0.4 0.3 0.3-2.4-0.1h-0.4l-0.2 0.1h-0.8l0.1 0.2c-0.2 0.2-0.2 0.2 2.1 2-0.9 0-1.7 0-2.5 0.1 0.2 0.3 0.2 0.3 1.3 1.3v0.2c-0.2 0.1-0.4 0.2-0.6 0.2 0 0.4 0 0.4 3 2.4-0.6-0.1-2-0.3-2.3 0 1.4 0.7 2.2 2.1 3.5 3l0.8 0.6c0.5 0.4 1.1 0.8 1.7 1.2-0.7 0.2-1.5-0.2-2.1 0.3-0.2 0.1-0.5 0.6 0 1.3 0 0 2.1 2.5 2.3 0.9 0.6 0 0.6 0 1.9 1.1l0.4 0.3 1 0.7c-0.8 0.3-1.7-0.1-2.5 0.3 0.8 0.7 1.7 1.4 2.5 2.1-1.3 0-1.8-0.1-1.6 0.6 0.3 1.2 1.7 1.2 2.3 2-0.1 0.2-0.1 0.2 1.3 1.8h-1.6c0.1 0.3 0.1 0.3 1 1.3l-0.2 0.3c1.1 1.2 2.3 2.4 3.5 3.5l1.7 0.2-0.6-0.8c0.1-0.2 0.3-0.4 0.9-0.1 0.7 0.5 1.3 1 2.1 1.4 0-0.6 0-0.6-0.9-1.4 1.9 0.7 3.8 1.6 5.5 2.7l0.7 1.6 0.4 0.4 1 0.7h3.1c2 0.1 3.9 1 6 1 0.3 0 0.7 0 1-0.1 0.2-0.1 0.2-0.1 0.7 0-0.5-0.5-1.1-1-1.7-1.6-0.4-0.3-0.4-0.3-10.1-5.9-1.6-1.1-3.2-2.1-4.7-3.3l-0.4-0.3c0.1-0.3 0.1-0.5-1.9-2.1-0.5-0.3-0.9-0.7-1.3-1.2l0.2-0.1c-0.2-0.5-0.4-0.9-0.8-1.3l-0.7-0.7 0.3-0.2 0.3-0.1-0.8-0.7 0.3-0.2c-0.3-0.7-0.3-0.7-1.5-1.7 0-0.4-0.3-0.7-0.6-1l0.4-0.1c-0.9-1.6-2.6-2.4-3.6-3.8 0.4 0.1 0.9 0.1 1.3 0-0.4-0.4-0.4-0.4-0.4-0.6l0.4-0.1-0.2-0.4-0.8-0.7 0.6-0.1c-0.7-1.4-2.2-1.9-3.3-2.9 0.5-0.2 1.1 0.1 1.7-0.2-0.1-0.5-1-0.5-1-1.2h0.2v-0.4h2.1c-0.2-0.4-0.5-0.5-0.8-0.8l1.1-0.2-0.9-0.8c0.5 0 1 0 1.6-0.1-0.8-0.7-1.7-1.2-2.6-1.7v-0.2h0.6c-0.6-0.1-0.9-0.3-1.4-0.5m36.9 18.1c-1.2-0.7-2.5-1.2-3.8-1.5h-0.1l0.5 0.7 1.6 1.7 1.1 0.5 0.4-0.2h0.4l-0.2-0.3h1.1c0.1-0.3-0.5-0.7-1-0.9m-90.8-36.9c-0.6-0.1-1.2-0.3-1.8-0.4h-0.2l-0.8-0.1 1.1 0.4h-0.7c0.4 0.3 0.9 0.3 1.3 0.5l-0.7-0.1s4.9 1.3 5.5 1.3c-0.7-0.4-1.4-0.6-2.1-0.8-0.6-0.2-0.6-0.2-0.7-0.3-0.4-0.1-0.7-0.3-0.9-0.5m3.1 1.8c-0.4-0.2-0.9-0.3-1.4-0.4-0.5-0.2-0.9-0.3-1.4-0.4l-4.2-1.2-0.8-0.2-0.5-0.1c0.1 0.1 0.1 0.1 0.5 0.2 0.6 0.2 1.1 0.4 1.7 0.7l-1-0.2c0.7 0.2 1.3 0.4 2 0.6 0.5 0.3 1.1 0.5 1.7 0.7 0.7 0.2 1.4 0.4 2.2 0.5h0.1l-0.4-0.3h0.6c0.4 0.1 0.8 0.1 1.2 0.1h-0.3m2.8 1.6c-0.5-0.2-1-0.3-1.5-0.5v0.1l0.2 0.2h-0.2l0.1 0.1h-0.2l0.2 0.1 0.1 0.1c1.3 0.5 1.8 0.6 1.8 0.6h0.5l-0.3-0.3-0.1-0.1-0.6-0.3m-3.6-0.8l-0.9-0.3-1-0.3h-1.6l0.7 0.5c0.5 0.2 0.4 0.3 0.3 0.4l2 0.8h1c-0.6-0.3-1.3-0.5-1.9-0.9 1 0.5 2.1 0.8 3.2 1l-0.2-0.2h0.2c-0.5-0.2-1.5-0.6-2.8-1h1m-6.6-2.1c-0.4-0.1-0.8-0.2-1.2-0.4l-1.2-0.4h-0.4c-0.2 0-0.2 0-3.8-1.1-0.4-0.1-0.8-0.2-1.1-0.3v0.1l0.1 0.1h-0.2l0.1 0.1c1.1 0.6 2.4 0.7 3.5 1.1l-0.8-0.1h-0.7c0.6 0.3 1.2 0.4 1.8 0.6v0.1c0.4 0.2 0.7 0.3 1.1 0.4 0.5 0.2 1 0.4 1.6 0.6l-0.7 0.1 0.2 0.3h-0.2c0.3 0.2 0.5 0.3 0.8 0.5l0.7 0.3 0.8 0.2h-0.1c-0.5-0.3-1.3-0.3-1.8-0.8h0.5l-0.4-0.3h0.4l-0.4-0.2 0.4-0.1c0-0.1 0-0.1-0.5-0.3l-0.3-0.1c0.7 0.1 1.3 0.4 2 0.4h0.4c-1.3-0.4-2.6-0.8-3.8-1.3l1.5 0.3c2.1 0.6 2.2 0.6 2.5 0.5l-0.8-0.3m-4.7 1c-0.5-0.2-1.1-0.4-1.6-0.6-0.3-0.1-0.5-0.1-0.8-0.1-0.8-0.3-1.6-0.6-2.5-0.9l-0.6-0.1h-0.1c0.6 0.3 1.4 0.3 1.8 0.9-0.4 0.1-0.9-0.1-1.3-0.1v0.1l0.2 0.3h-0.1c-0.6-0.1-1.1-0.2-1.6-0.3 1.5 0.8 1.5 0.8 1.6 0.9-0.7-0.2-1.3-0.4-2-0.5l-0.6-0.1c1.7 0.8 3 1.3 3.4 1.2l-0.1-0.2-0.1-0.4v-0.1c0.5-0.2 0.9 0.2 1.4 0.1v-0.1c1.6 0.6 1.6 0.6 1.7 0.8h-0.5l1.5 0.7c0.4 0.2 1.4 0.5 1.9 0.7 2.1 0.6 2.1 0.6 2.3 0.5 0.2-0.4-1.3-1-2.9-1.6l-0.8-0.3c0.3-0.1 0.7-0.1 1 0h0.3c-0.4-0.3-0.9-0.6-1.4-0.8m-26.1 1.9l0.1-0.2c-1-0.6-1-0.6-1.2-0.7-0.8-0.1-0.9 0-0.9 0.1l-0.2 0.1h-0.6c-1.2-1.5-1.9-1.3-1.9-1.3-0.2 1.2-0.2 1.2-1 0.8v-0.7l-0.1-0.2-0.3-0.3-0.2 0.1v0.3h-0.2l-0.4-0.2h-0.8c0.7 1.4 0.7 1.4 0.6 1.8l-0.3-0.1c-0.2-0.7-0.8-1.3-1.5-1.5-0.9-0.2-1.9-0.2-2.8-0.1 0 0-1 0.8 0.7 1.5h0.3l0.7 0.3c0.5 0.1 0.8-0.3 1.2-0.2 0.5 0 0.9 0.3 1.1 0.7h-2.2l0.2 0.8c0.5 0.3 1 0.5 1.5 0.7h1.7s0.6-0.1 0.9 0l0.7 0.5c0.6 0.2 1.2 0.3 1.8 0.2 0.5-0.1 0.5-1 1-0.8 1.2 0.4 1.2 0.4 1.7 0l-0.2-0.5-0.3-0.8c0.2-0.2 0.7 0 0.9-0.3m-10.7 1.8l-0.1-0.2 0.1 0.2m13.7 8.1l-0.1-0.5c-0.8-0.7-0.8-0.7-2.9-0.9-0.3-0.4-0.5-0.9-0.6-1.4-0.8-0.1-1.6-0.2-2.5-0.2-0.3-0.9-0.6-1.5-1.1-1.6-0.6-0.1-0.7-0.2-1.3-1.1-0.4-0.2-0.9 0-1.4-0.3s-0.5-0.8-1-1l-0.4-0.1c-0.5-0.2-0.7 0.5-1.2 0.4-0.9-0.2-0.9-0.2-1.2-0.5l-0.2-0.9-1.3-0.2c-0.4-0.5 0.3-0.9 0.1-1.4-0.8-0.2-1.9-0.5-2.7-0.6h-0.2c-0.1 0.1-0.4 0.2-0.4 1l0.1 0.4c0.1 0.4 0.5 0.7 0.4 1.2-0.3 0.8-0.9 0.6-1 0.5l-0.4-0.9-0.1-0.5-0.1-0.3v-0.5l-0.1-0.6-0.6-0.1c-0.6 0.3-0.8 0.9-1.4 1.2h-1v-0.6l0.8-0.6v-0.4c-0.4 0.1-0.8 0.3-1 0.7h-2c-2.9 0.5-1 1.8-1 1.8 0.4 0.2 0.9-0.4 1.1 0.1 0 0 0.3 0.5-0.5 1-0.2 0.7 0.4 1.5 0 2.2-0.7-0.5-0.5-1.9-1.7-1.9 0.1 0.6-0.3 1.2 0.1 1.7 1.3 1.7 1.8 0.8 1.8 0.8l0.1-1.1c0.2-0.1 0.5-0.1 0.7 0l0.2 0.9c0.3 0.4 0.8 0.6 1.3 0.5h0.5c0.7 0.1 0.6-0.9 1-1.2 0.3 0 0.3 0 0.7-0.1l-0.1-0.3v-0.7l0.7-0.1c0.4 0.3 0.4 0.3 0.5 1.4 0.5 0.1 0.9 0.2 1.4 0.2l0.6-0.6 0.4 0.3 0.1 0.9 0.2 0.1c-0.1 0.4-0.1 0.4-1 0.3h-0.5s-4.3-0.2-4.4 1.1l-0.1 0.9c0.4-0.1 0.7-0.2 1.1-0.2h0.5c1.1 0.3 1.4 0.3 2 0.1s0.8-0.8 1.5-0.9h0.2c0.4 0.1 0.4 0.1 0.7 0.6l-0.3 0.4-1.7 0.8c-4.1-0.7-3.5 0.8-3.1 1.4s0.5 0.5 1.5 0.5 1.1 0 3.3 3l0.5-0.1v-0.5c0.3-0.7 1.5-0.6 1.6-1.5 0.1-0.7-0.3-1.4 0.1-2 0.3-0.4 0.5-0.4 1.3-0.4-0.1-0.8-0.2-1.5-0.3-2.2 0.5 0 1.2 0.1 1.3-0.5-0.6-0.6-0.4-1.4-0.7-2h2.5v0.1c0.2 0.6-0.3 1.7 0.6 1.7 2 0 1.9 1.4 1.9 2-0.8 0.5-0.7 0.8-0.3 1.8h0.9c0.8-0.1 0.7-1.4 1.6-1.2 0.5 0.1 0.5 0.1 1 1.7h1.2l0.2-0.1v-1l2.4 0.1 0.7-0.2m249.8 367c-1.1-15-2.8-29.8-4.9-44.4-17.3-0.1-36-0.2-55.9-0.5-25.8-0.3-52.6-0.7-79.9-1.3 0 0.1-1.4 6.8-3.2 8.4l-0.7 0.7-0.7 0.5h-0.7c-1 0-1 0-3.6 0.6h-0.9l-0.7 0.2-0.7 0.4-0.7 0.6c-0.7-0.1-1.4-0.3-2.1-0.7-0.4-0.5-0.9-0.9-1.4-1.2-0.3-0.1-0.7-0.1-1-0.1-2-0.1-4-0.4-5.9-1h-1.6l-0.8 0.4c2.2 1.5 3 1.6 6.9 2.3 0.4 0.4 0.6 1 0.6 1.5v0.9c0.4 0.7 1.1 1.3 1.5 2 0.1 0.7 0.2 1.4 0.2 2.1l0.1 0.7-0.1 0.9c0 4.2 3.5 6.6 5.2 9.9 2.4 3.6 2.7 3.9 4.5 5 0.7 0.1 1.4 0.2 2.1 0.2 2.6 0.2 2.7-2.5 4.1-3.8l1 1.3c2.1 3.3 5.6 5.5 7.7 8.9l6.5 13.5c0.1 1 0.1 1.2 0.1 1.5-0.5 2-0.7 4.8 0.6 6.6 1.4 2.1 4.2 1.3 5.9 2.9 0.6 0.5 7.3 12.8 7.3 12.9 2.1 4.5-3 11.3 3.4 14.2 0 0 7.3 5.3 8.9 10.9 0.9 3 1.5 3.4 2.6 4.2 3.1 2.3 3.1 2.3 11.6 23.8-0.1 4.9-0.4 9.2-0.7 13.6 1.5 6.8 10.7 8.6 13.7 5.1 4.7-5.6 4.7-5.6 6.6-5.9l7.7 0.1h0.6c0.5 0.4 0.9 0.8 1.3 1.2h0.9c0.6-0.9 1.3-2.1 2-3 4.6-7.5 14.7-4.4 20-10.5 1.3-1.8 1.3-1.9 5.7-1.5l0.7-0.7c0-3.5 0-3.8 1.3-5 1 0.2 1.2 0.2 4-1.6 1.5-1 1.5-1 11.9-0.5 0 0 0.1-5.2 1.8-8.1 2-0.3 4.1-0.4 6.1-0.4 0.6-2.4 1.4-4.7 2.5-6.9 0.6-13.9 0.4-27.3-0.2-40.5l-0.6 0.7c-1.1-1.4-0.9-3.2-1.5-4.7-0.9-0.3-0.9-0.3-1.8-1.8-0.3-2.7-0.4-5.1-0.6-7.6-0.4-0.8-0.9-1.5-1.6-2.1-3.8 1.3-3.8 1.3-4.6 12.5-1.5 0.4-3 0-4.4 0h-1.9c-1.1-0.5-2.1-1-3.2-1.5-0.5-0.1-0.9-0.1-1.4-0.1-1.6 1.5-3.1 3.1-4.5 4.8 0 0-5.1-0.6-5.6-6.9 0.4-0.1 0.9-0.3 1.3-0.5 0.6-0.7 1.4-1.3 2.2-1.6h1.1c7.3 3.5 7.1-1 7-1l-0.6-0.7c-0.6-0.2-1.2-0.4-1.9-0.4-0.6 0-1.2 0.1-1.8 0.3h-2c-3.5-1.1-7.1-1.1-10.5-2.2-0.7-0.1-1.4-0.2-2-0.1-0.2-2.5-0.3-4.9-0.4-7.4-1.2-1.9-1.3-2-9.5-5-1.7-6.4-5.9-12.1-5.1-19.2 0.6-5.1 7.4-2.1 7.5-2 0.5 0.2 0.5 0.2 4.9 4.9 2.8 3 2.8 3 5.4 7.9 1.6 3 5.2 3.5 7.3 5.8 3.7 4.2 4.7 5.3 14.2 6.3h1.4 1.2c1.2-0.8 2.8-0.5 4-1.1 0.6-0.2 1.2-0.4 1.8-0.3 2.2 0.1 2.2 0.1 4.5 2.4l0.1 0.1m86-197c-11.8-15.6-28.2-36-41.1-50.7 2.8 3-38.5 4.6-115.8 4.2 32.2 55.6 55.3 123.8 66.1 199.1 102.3 0.5 158-1.6 157-5.4l-6.4-23.6c-14.9-43.2-15.2-44-25.2-64.4-20.1-37.6-23.1-43.3-34.6-59.2m-318.8-49.2l5.9 0.1-1.2-0.3h-0.7c-0.5-0.2-0.9-0.5-1.2-0.8l-0.1-1-0.4-0.1h-1.6c-0.3 0-0.5 0.1-0.8 0.3-0.4 0.2-0.4 0.2-0.4 0.3l-0.1 1 0.6 0.5m1.5-79.4c-0.3-1.1-0.6-2.2-1-3.3l-0.2-0.1-0.6 0.2h-1.5l0.2 0.3v0.7c0.2 0.7 0.5 1.4 0.7 2.1l2.4 0.1m160.4 82.1c-15.4-26.5-32.8-50.1-51.9-70.2 0 0.4 0.1 1 0.2 1.4-0.4 0.2-0.9 0.2-1.4 0.2-0.5-0.1-1-0.2-1.5-0.2h-1.4c0.3 0.8 0.8 1.6 1.4 2.2h-1.8c-2-1-2-1-5.8-5.6l-0.4 1.2c-0.4 0.1-0.9 0.2-1.3 0.2l-0.5 1.2c-0.4 0.4-0.9 0.5-1.5 0.5h-1.3c-0.1 0.4-0.3 1-0.4 1.4-0.5 0.2-1.1 0.4-1.7 0.4-1.7 0.6-1.8 0.6-2.4 2.8-0.8 0.3-1.6 0.5-2.4 0.4l-0.8 1c1 0.8 2 1.7 2.9 2.6-0.6 1.4-0.6 1.4-3.8 2.7-0.2 0.1-0.4 0.2-0.7 0.2-6.5-5-6.5-5-7-6 1.3-0.2 2.6-0.3 3.9-0.2-0.6-0.9-1.2-1.7-1.8-2.6-0.7-0.4-1.4-0.8-2.2-1.1-1-0.9-2.1-1.7-3.2-2.4l-1.3 0.3h-0.3c-1-0.8-2.4-1.2-3.7-1h-1.5c-0.8 0.6-0.4 1.2-0.1 1.8l1.4 0.2c1.7 1.5 3.1 3.3 4.3 5.3-0.3 1.5-0.4 1.7 1.9 3.4 0.8 0.3 0.8 0.3 3.5 2.2l0.4 0.6c0.3 1.6 1.3 2.8 2 4.3-2.8-0.3-2.8-0.3-3.8-0.9l-0.5-0.8c-0.1-0.1-0.1-0.1-5.8-0.3-0.1 0.8-0.3 1.7-0.7 2.4-3.1 1-3.1 1-3.6 2.9-0.4 0.1-1 0.2-1.4 0.3h0.2c1.3 2.7 4.8 3.7 5.8 6.7l-0.1-0.1c-3.9-0.2-3.9-0.2-5.1-0.5-0.5 0-0.8 0-1.1-0.1-6.5-1.4-8.4-3.5-9-4.2-0.5 0.7-1.2 1.2-2 1.5 0.1 1.1 0.1 2.5 2.9 3.2l0.6 1.2c0.9 0.7 1.2 0.7 1.5 0.7 2.2-0.4 2.8 0 4.9 1.7 0 0.4 0.1 0.9 0.1 1.3-1.5 0.1-2.9 0.1-4.4 0.1l-0.6 1.1-11.1-9.1-2.7-0.1-1.2-2.9c-1.8-6.9-10.8-6.1-13.2-12.3 2.9 0.7 12.9 5 13 5.1 2.2 0.2 4.4 0.4 6.6 0.4 2 0.5 3.9 1.6 6 1.8h2.5c15.1-5.1 0.1-12.5-0.1-12.6l-12.7-4.4c-0.8-0.6-1.8-1.1-2.8-1.4-1.3-0.7-2.1-1.2-5-0.9-0.5 0.1-1.1 0.2-1.6 0.2-1.2-0.6-2.4-1.3-3.5-2-0.9-0.3-1.8-0.4-2.7-0.4l0.6 1.2c-1 0.8-1.2 0.8-1.5 0.8l-1.2-0.6v-1.4c-0.1-0.3-0.2-0.7-0.3-1-1.4-0.6-1.7-0.8-2.8-2.5h-2.1l-0.8 1c-2.1-0.4-4.2-1.2-6.3-1.8-0.7-0.4-0.8-0.7-0.9-1 0.4 0 0.9 0 1.3-0.1 0.2-0.4 0.4-1 0.5-1.5-0.8-0.7-2.9-2.6-8.3-3.3 0.3 0.7 0.5 1.4 0.8 2.2-0.4 0.1-1 0.1-1.4 0.2-0.5-0.4-0.8-0.9-1-1.5l0.5-1.2c0-0.3-0.1-0.6-0.2-0.8l-4.6-0.1c0.3 0.7 0.6 1.7 0.9 2.4-0.1 0.5 0 0.9 0.1 1.3l-0.5 0.6c-0.2-2.1-0.3-2.2-1.6-3.2-0.8-0.1-1.2-0.1-1.7-0.1l-0.6-1.8-0.9-0.2-0.2 0.2c-1 0.8-2.2 1-3.4 1.6-0.1 0.8-0.5 1.5-1.1 2.1h-0.5l-1.2-0.4c-0.1-0.4-0.2-0.9-0.2-1.2-0.3-0.5-1-0.6-1.8-0.6-1.3 0.1-2.5 0.6-3.5 1.3 0.4 2.1 0.4 2.1 3.8 2.6 0.2 0.5 0.4 1.1 0.5 1.7h-1.4c-0.7-0.4-0.7-0.4-3.7-0.8-0.8-0.2-1.6-0.3-2.4-0.3 0.4 2.4 0.4 2.4 0 3.8-0.4-0.7-0.9-1.6-1.2-2.3-2.2-0.4-3.5-2.6-5.8-2.6-0.2 0.4-0.3 1-0.2 1.5 1.9 4.2-0.5 4.8-1.6 5.1-0.5-0.7-0.9-1.4-1.2-2.2l-0.9 1-1.3 0.1c-0.4 0.4-0.8 1-1 1.4 0.6 0.5 1.4 1.1 2 1.5v1.3l-1.1 0.6c-0.2-0.1-0.2-0.1-3.4-1.3 0.1-0.9 0.2-1.8 0.2-2.7-0.4 0-0.9-0.1-1.3-0.1-0.1 0.8-0.1 1.6-0.1 2.4-3.2 0.4-3.2 0.4-3.8 0.7l0.7 1-0.9 1c-2.4-0.1-2.4-0.1-3.8 1.5l-0.8 0.2-1 1.6h-0.8l-0.8 1h1.5c2.6-1.7 2.6-1.7 4.6-1.5 2.1-1.8 4.9-2.5 7.6-1.8 0.1 0.4 0.3 1 0.4 1.4-1.3-0.1-1.3-0.1-4.9 1.3-0.5 1.5-1.7 2.8-1.7 4.4-0.7 0.5-1.6 0.8-2.4 1-1.1 1.8-2.7 3.3-4.5 4.3-0.7 2.4-2.2 4.6-2.8 7l-0.1-0.8c-2.2 1.3-4.6 2.5-7 3.4l-0.4 1.5 1.3 0.2c0.7-0.1 1.5-0.1 2.2-0.1-1.4 5.1-7.1 5.1-9.9 8.6-1 0-1.9-0.3-2.7-0.7-0.9-0.1-1.5-0.1-2.1-0.1l-0.5 1.6c0.1 0.4 0.3 1 0.4 1.4-0.7 0.5-1.5 0.8-2.4 1.1h-1.3c-2 0.8-4 1.8-6 2.6-0.7 3.6-4.5 3.3-6.5 5.1 0.1 0.8 0.1 1.7-0.1 2.4-0.2 0.1-0.2 0.1-1.7 5.4-0.4 0.2-0.7 0.2-1.1 0.2-0.5 0.9-0.8 1.9-1 3l2.6 0.1 1.3-0.1 0.9 1c-0.4 0.7-1 1.3-1.8 1.8-0.6 2.2-0.6 2.2-2 3 0 0.4-0.1 0.9-0.2 1.3 1 0.6 1 0.6 4.1 0.9-0.4 2.2-0.4 2.2-1.8 3.2 6 0.2 11.9 0.4 17.9 0.6 1.6-2.1 1.6-2.1 5.3-3.2 0.2-0.7 0.3-1.4 0.3-2.1 2 0.3 2.1 2.2 3.2 3.3v1.4c10.5 1.1 21.1 1.4 31.8 1.7 1.1-0.6 2.2-1.2 3.4-1.6 0.1-2 0.2-2 2.8-4 0-1.3-0.1-1.7-0.1-2s-0.2-0.9-0.3-1.3c-1.7 0-3.3-0.4-5.1-0.2 0.1-2.6 0.1-2.6-0.6-4-0.8-0.2-1.7-0.5-2.4-1-0.1-3.7-0.1-6.4-0.2-9 0.1-0.1 0.1-0.1 3.9-6.5 5.8-1.3 9.9-6.7 9.9-6.8 1.3-0.9 1.3-0.9 3.6-1l0.9-1c-1.4-4 1.1-7.5 1.5-11.3 1.5-0.3 1.5-0.3 3.9 0h0.5c2.1 2.2 2.1 2.2 3.2 2.5l0.8-1c2.1 0.8 2.2 1 3.2 2.4 0.4 1.2 0.8 2.4 1 3.6-0.9 0-1.8 0-2.6-0.1 0.7 3.9 0.7 3.9-11.5 13.8 0.2 3.4-0.2 6.9 0.6 10.3l0.1 1c0.3 0.9 0.4 1.7 0.5 2.6 2.3 1.6 11.7 6.6 11.8 6.7 0.5 0 0.7 0.1 0.9 0.1 3.2-1.6 6.9-0.5 10.2-2l0.1-1c2.9-0.3 5.9-0.4 8.8-0.3 0.7-0.5 1.5-0.9 2.3-1h0.5c0.6 0.6 1.1 1.3 1.4 2.1 2 0.4 4 0.7 6.1 0.6l0.7 1-0.8 1c-6.3 0-7.3 0-9.1 5-5.4 2-10.6-3.5-15.9-0.2-2.1-0.7-2.1-0.7-3.6 0-0.1 0.8-0.5 1.6-1 2.2 39.3 2 78.2 2.8 114.7 3.2 14.8 0.2 28.5 0.3 41.3 0.4m-225.6-4.6c-6-0.2-11.9-0.4-17.9-0.6l-0.1 0.1c-0.5 0.7-0.5 0.7-0.6 0.9 0 0.4 0.4 0.7 0.4 1.1l-0.1 0.8c3.2 0.1 3.2 0.1 3.3 0.1l0.4 0.5c0.1 0.3 0.1 0.3 1.2 1.7l2.1-0.5c0.8 0.2 1.5 0.7 2.3 0.9h1s1.9-0.2 2.4-1.2c0.2-0.4 0.4-0.5 0.7-0.5 0.6 0.1 1.3 0.1 1.9-0.1 0.4-0.2 0.8-0.5 1.2-0.9l0.5-0.9c0.3-0.7 0.9-1 1.3-1.4m40.5 1.2c-10.5-0.3-21.1-0.7-31.7-1 0.1 1.6 2 2.2 2.1 3.8v0.5c-0.2 0.6-1.1 0.3-1.1 1 0 0.4 0.2 2.4 1.4 3.2l1.2 0.4c0.5 0.6 1 1.3 1.3 2.1 0 0.4 0 0.7-0.1 1.1v1.1c0.2 2.2 1 2.7 2.9 4.3 1.1 1 1.1 1 1.1 1.8 0 1.1-1 1.7-1.2 2.7v0.5c0 0.8 0.4 1.5 0.5 2.2 2.6 0.1 5.2 0.2 7.7 0.2 0.5-3.2 0.8-5 3.4-4.9h1.1l1.5 0.5c1 0.8 1.7 0 2.4-1 0.4-0.5 1.2-0.5 2.7-0.4v-3.3c1.5 0 2.9 0.1 4.4 0.1 0.2-0.9 0.2-1.8 0-2.7l-2.1-0.1c-2.1 0.2-2.1 0.2-2.3 0.1l0.1-1-1.1-0.3c2-3.1 2-3.1 2.5-6.4 0.4-2.9 0.4-2.9 0.6-3.2 0.8-0.8 1.8-1.4 2.9-1.7m251.1 202.8c-10.8-75.3-33.9-143.6-66.1-199.1-12.8-0.1-26.6-0.2-41.3-0.4-36.4-0.4-75.4-1.2-114.8-2.1l-5.9-0.1c1 0.3 1 0.3 1.1 0.3h0.5c-1.3 0.6-3 1.3-4.4 1.8 0 0.7 0 1.6 0.1 2.2 2.5 1.2 2.5 1.2 6.2 1.3 1-1.1 2.2-2.2 3.4-3.1 2.7 1.2 3.9 4.1 6.5 5.3 0 0.6-0.1 1.5-0.2 2.2-1.3 0.6-2.4 1.6-3.1 2.9-0.7 1.4-1.4 1.4-2.1 1.4s-1.6-0.3-2.2-0.4l-1-1.9c-1.4-1.5-1.7-1.5-2.1-1.5-0.1-0.6-0.1-1.5-0.2-2.1-0.7 0-1.4 0-2.1-0.1-0.8 1.2-1.8 2.3-3 3.1-0.7 4.9-2.8 14.6-2.8 14.6 0.4 0.4 1 0.9 1.5 1.3l-0.5 1.1c-8.2-1.7-8.2-1.7-10.5-0.2 0.5 1.4 1.4 2.6 2.5 3.7l-0.2 1.1-1.1 0.2c-2.5-1.7-4.8-3.7-7.4-5.3-17.4 7.7-22.1 9.8-21.7 1.9l-2.2-0.1c-1.1 0.8-2.5 1.2-3.9 1.1-1.1-0.1-1.9-0.1-2.6-0.1l-2.4 0.1v2.1c-0.5 0.9-1.5 1.4-2.5 1.3-0.6-0.1-1.4-0.4-2.1-0.5-0.5-1.1-1.3-2-2.3-2.7-0.7 0-1.5 0-2.2-0.1 0-0.7 0.1-1.3 0.1-2s0.3-1.5 0.4-2.1c1.5-0.1 3-0.1 4.4 0 2.2 0.6 4.1 1.9 6.5 2 0.9-1.1 2.6-3.3 2.7-10-0.6-0.5-1.4-0.7-2.1-0.6-4.3 1-4.3 1-5.5 2.6-1 0.5-1.2 0.5-1.4 0.5h-0.1c-0.3-0.6-0.6-1.4-0.8-2 0.4-0.5 1-1.2 1.4-1.7 0.2-0.9 0.4-1.7 0.4-2.6-0.6 0.1-1.5 0.2-2.2 0.2-1.1-8.5-1.1-8.5-2.2-9-4.5 4.8-4.5 4.8-6.1 4.8-0.4 0.5-0.9 1.2-1.2 1.8 0.2 1.2 0.2 1.4 0.2 1.5-1.1 0.9-2.3 1.7-3.7 2.2-1.4 3.7 2.5 6.5 1.6 10.1 0 0.5-0.1 0.9-0.1 1.3l-0.8 2.5c0.5 1.2 1 2.8 1.5 4-0.1 1.4-0.1 2.2-0.2 2.9-0.6 0-1.1-0.1-1.7-0.1l-2.2 0.3c-2.6 0.1-3 0.1-3.5 0.1-5-0.9-5-0.9-15.2 6.1-1.9-0.9-2.2-0.9-2.7-0.9h-3.2c-0.2 0.7-0.4 1.5-0.5 2.2l2.1 1.2c-0.2 1.3-0.4 2.6-0.5 3.8-3.7 0.2-4.5 0.4-9.7 4.6-0.6 0.4-1.4 0.6-2.1 0.6h-2.2c-2 2.3-2.4 4.7-2.7 7.1-2.2-0.1-4.5 0.1-6.6 0.6-0.4 1.2-0.7 2.4-0.9 3.7l-4.4-0.2c-0.4-0.2-0.8-0.5-1.2-0.7-0.7 0-1.5 0-2.2-0.1-1.5-0.8-1.4-1.2-1.3-1.6-0.6-0.4-1.3-0.8-1.9-1.2-1 1-1.7 2.4-1.8 3.8 0.6 0.3 1.5 0.7 2.1 1-0.5 0.7-1.1 1.7-1.6 2.4l0.4 1.3c-0.1 0.5-0.2 1-0.3 1.6-3 0.2-5.9-0.7-9-0.7l-1.1-1.8c-6.3 1.3-6.3 1.3-8.1 2.9 0.6 1.8 1 1.8 1.4 1.8 0.9 1.1 2 2 3.3 2.7h3.3c3.8 3.6 3.8 3.6 4.5 4.8 0.7 2.6 0.8 5.4 0.2 8 1.4 1.7 3.2 2.8 4.6 4.4-0.5 3-0.6 3.1-6.2 17.5-1.6 0.8-3.2 1.5-4.8 2.1h-1.8c-3.2-1.5-7.3-0.9-9.8-4.2-5.1-0.7-8.7-0.8-12.4-1-4.8-0.8-4.8-0.8-6.2-1.9h-0.6c-0.5 0.5-1 1.1-1.5 1.5-2.1 1.1-4.6 1.6-7 1.4l-0.9 1.3c3.2 4.8-1.7 9.8 0.2 14.7-0.5 2.6-1 5.2-1.4 7.8-5.4 9-5.4 9-4.2 11.8 0.6 2.2 0.5 2.6 0.4 3.1l-0.2 1.4c-1.8 2.4-1.8 2.4-2 6.4 1.2 0.4 2.4 0.6 3.7 0.6 2.6-0.6 3.5-0.8 5.9 1.9 1.5-0.1 2.9-0.4 4.4-0.8 0.5 0.4 0.5 0.4 4.9 2.9 0.7 1.3 1.2 2.7 1.7 4.1 0.6-0.1 1.4-0.3 2-0.5l-1.2-0.4c12.1-3.7 21.7-13.7 35.3-13.6 1.5-1.1 2.4-2.9 2.5-4.7-0.7-1.3-1.7-2.6-2.8-3.6 0.3-1.4 0.3-1.4 4.4-8.1 2.5-4.1 19.3-7.5 19.4-7.6 1.1-1.1 1.7-2.5 1.7-4.1 0.1-0.4 0.1-0.9 0.2-1.3-0.2-5.8-0.4-10.8 8.5-8.4l1.1 0.1h0.6c3.8 2.2 3.8 2.2 7 2.5l1.9 0.1h2.2c0.6-2.7 0.7-3.1 3.2-5.6h2.8c2 0.1 3.6 0.2 7.5-3.9 7.8 1.1 7.3 10.2 12.9 13.3 1.2 0.9 2.2 2 2.8 3.4 19 13.1 28.4 22.6 28 28.1-3.5 1.3-17.3 3.3-22 3.2-0.3 0.5-0.7 1.1-1 1.6 3.7 1.8 5.9 5.7 10 7.1 3.5 0.2 6.2 0.2 8.9 0.3 0-1.7 0.1-3.5 0.1-5.2 6-2.2 9.2-7.8 13.9-11.5-0.1-2.5-0.1-3-0.1-3.6-2.6 0.1-3.5 0.1-4.4 0-1.3-0.7-1.3-1.2-1.3-1.7 1.5-1.5 3.6-2.2 5.7-1.9 3.5 1.3 3.5 1.3 5.4 3.2 0-0.1 0-0.1-0.4-6.4-4-3.2-9.9-4.3-12.5-9.4-1.6 0-5-0.1-11.1-5.6 1-2.2 1-2.2-5.6-7.4-0.4-0.5-1-0.8-1.6-0.8-0.2-1.5-0.7-3-1.3-4.4-1.6-0.1-3.1-0.2-4.7-0.2 0.1-1.1 0.1-2.3 0.2-3.4l1.3-1.2c1.3-1.1 1.3-1.3 1.4-1.5-0.6-1.3-0.9-2.7-0.9-4.1 4.5-1.5 5-0.3 6.3 3.6 9.9 1.3 12.4 13.3 22.1 14.9 0.1 0.4 0.2 0.9 0.3 1.3 4 4.5 10.9 5.4 14 10.9-2.8 7.5-2.8 7.5 0.3 9.7 0.1 3.5 0.2 7.4 5.8 7.8 1.4 1.7 2.2 3.9 2 6.1-1.1 0-2.3-0.1-3.4-0.1-0.4-0.5-0.9-1.2-1.2-1.8-0.4 0.5-0.9 1.2-1.3 1.7 3.2 5 3.2 5 6.8 6.1l0.8-1.8c2.4 1.4 2.5 1.5 5 4.3-0.3 1.5-0.2 3.1 0.2 4.5 1.3 0.5 2.7 0.7 4.1 0.7 0.7 0 1.6-0.1 2.2-0.1 0.8-1 1.8-2.5 2.5-3.6-0.1-0.6-0.1-1.2-0.1-1.8-0.2-0.6-0.3-1.5-0.5-2 0.5-0.4 1.2-0.9 1.7-1.3 1.4 0.4 2.8 1 4 1.8h1.9c0.5-0.5 1.1-1 1.6-1.5 0-1.2 0-2.8 0.1-4 1.4 0.1 2.8 0 4.2-0.2-1.5-2.3-2-3-4.9-4.3-0.2 1.5-0.6 2.9-1.3 4.2-3.2-0.7-3.6-1.9-5.9-8.5-3.6-1.3-3.6-1.3-5.7-3.1-0.1-1.8-0.1-2.2-0.1-2.7l2.4-0.6c1.2 0.9 2.5 1.6 3.8 2.2h2.9 1.3c0.3-1.3 0.2-2.7-0.2-4 2.6-2.1 2.6-2.1 14.2 2 0.1 0.6 0.1 1.5 0.2 2.1 0.4 0.2 1 0.5 1.5 0.7l1.1 2.4c-0.6 0.2-1.5 0.6-2.2 0.8-0.3 4.3 5.9 5.5 4.8 10.2 0 0.7 0.1 1.5 0.2 2.2-0.1 0.6-0.1 1.1 0 1.7 0.6 1.3 1.3 2.5 2.2 3.7l0.5 0.7 0.7 0.4 0.5 0.7 0.9 0.7 0.7 0.5c0.2 0.6 0.5 1.5 0.6 2.1l-0.7 0.8-0.3 0.7-0.3 0.9c0.1 1.4 0.3 2.7 0.7 4l0.8 0.7 0.7 0.5 1.5-2.2 0.4-1.8c0-0.9-0.1-1.9-0.3-2.8 0.5-2 0.9-2 1.3-2l0.7 0.2 0.7 0.5 0.5 0.7 0.7 0.6c0.7 0.6 1.7 1.5 2.3 2.1l0.7 0.9 0.6 0.7 0.7 0.4h0.7c1.2 0 2.4 0.3 3.5 0.8 0.7 0.1 1.5 0.2 2.2 0.2l0.6-0.3 0.7-0.5-0.2-0.7 0.1-0.7c-0.2-1.2-0.2-2.5 0.3-3.6l0.3-0.7 1-0.7c1.5 0 3 0.3 4.5 0.8l2 1.9 2.5 2 0.5 0.7 0.7 0.5 0.7 0.2 0.9 0.4 9.2 0.2c-0.1-0.6-0.2-1.5-0.2-2.1s-0.1-0.9-0.1-1.2c0-0.6-0.1-1.5-0.2-2.1 0.5-0.1 1.3-0.4 1.8-0.5l0.6-0.2h1c1.6 0.4 3 1.2 4.2 2.3 0.7 0.1 1.4 0.2 2.2 0.2l0.7-0.4 0.3-0.7 0.6-0.5 0.7 0.2 1.2 1.7 0.2 0.7c0.1 1.5 0 3.1-0.2 4.6-0.8 2.5-1.4 4.9 0.1 7.7l0.2 0.7c0.3 0.5 0.7 1.3 1 1.9-0.2 0.6-0.5 1.5-0.7 2.2l-0.6 0.5-0.3 0.7-0.2 2.5-0.4 0.7c-2.3 3.9-2.3 3.9-3.8 4.7l-0.6 0.5-0.7 0.7-0.1 0.7c27.3 1.2 54.1 1.6 79.9 2 19.8 0.9 38.4 1 55.7 1.1m-60.9-289.2l-27.3-13.8 1 0.5 0.6 0.3c-0.6-0.3-0.5-0.2-0.5-0.2l0.7 0.3 0.9 0.5h-0.1c-1.9-0.8-3.7-1.8-5.6-2.5l3 1.4c-0.8-0.3-1.9-0.8-2.7-1.2-1.6-0.9-3.2-1.7-4.9-2.4l-1-0.4-1-0.4c2.2 1.2 4.5 2.1 6.8 3.2v0.1l0.6 0.3c1 0.5 2 0.9 3 1.4 0.5 0.2 0.7 0.3 1 0.4 0.5 0.3 1.3 0.7 1.9 1l0.2 0.2 0.8 0.7 0.1 0.2 0.5 0.4-0.3-0.1c-0.1 0-7.7-4.1-10.6-5.5l-0.8-0.5c-0.7-0.4-1.6-0.8-2.2-1.1l-1.9-0.9c-2-1-4-1.9-6-2.7l-0.7-0.3c-1.3-0.6-2.7-1.1-4.1-1.7-0.2-0.1-0.4-0.2-0.7-0.3-2.5-1-4.5-1.8-7-2.7h-0.3c-3.2-1.2-6.3-2.3-9.5-3.4-0.6-0.2-0.6-0.1-0.7-0.1l-1-0.3c0.5 0.2 1.3 0.6 1.8 0.8l-2.2-0.7c0.9 0.4 2.3 0.9 3.7 1.4h-0.1l-1.2-0.4c-0.5-0.2-1.2-0.4-1.7-0.6-1.4-0.5-2.8-1-4.2-1.5l-0.3 0.1c-2-0.5-4-1.2-5.9-2l-2.8-1-0.6 0.1c12.2 4.7 12.2 4.7 14.6 5.5l-0.9 0.1 2.2 0.9 0.7 0.3c0.7 0.3 1.2 0.5 1.6 0.7s1.3 0.6 1.9 0.8c-0.6-0.1-0.6-0.1-4.1-1.1h-0.3l-1.1-0.3c1.5 0.8 3.1 1.6 4.7 2.2l-0.3 0.4c1 0.6 1.8 1.1 2.8 1.7l-0.9-0.2c2.3 2.4 2.3 2.4 14.2 8.2 0.7 0.3 1.1 0.5 1.5 0.8l0.9 0.5-1-0.2 0.4 1c-0.6 0-1.4-0.1-2.1-0.1-0.3 0.4-0.8 0.6-1.3 0.5l0.6 0.7 0.8 0.5c-0.4 0.1-0.9 0.1-1.3 0.1 0.5 0.4 11.5 6.6 13.4 6.9h0.5c0.8 0.2 1.8 0.3 4.7 2.1 0.6 0.3 0.9 0.6 1.3 0.8l0.9 0.7c-0.5 0-0.5 0-8.7-3.3h-1.9c-1-0.4-2-0.8-3-1.4l-1-0.3-0.2 1 1 0.9c2.5 0.4 2.5 0.4 4.8 1.9-0.2 0-0.2 0-3-0.7h-0.3c1.4 1.7 3.2 3 5.3 3.6l0.6 0.1h0.3c2.8 0.8 5.5 2 8 3.6-4-2.2-8.9-2.1-12.7-4.9-0.9-0.6-1.5-1-2.2-1.5-6.9-4.4-6.9-4.4-10.1-6.1h-0.8c6.2 3.8 6.2 3.8 6.8 4.3s0.9 0.6 1.3 0.9h-1c1.2 1.4 2.5 2.7 3.9 3.9l0.5 0.4c10.9 6.6 10.9 6.6 12.3 8.1l0.5 0.4c2.9 1.8 5.5 4.2 8.6 5.9 1.1 0.1 1.8 0.1 2.5 0.1-0.5-0.5-0.9-1.1-1.3-1.6-0.3-0.5-0.3-0.5-0.2-0.5 7 2.5 11.8 8.7 18.7 11.4 1.3 0.8 3 1 4.1 2-0.6 0.7-0.7 0.7-0.9 0.7-4.3-2.3-4.3-2.3-5.7-3.5l-1.5-1.3s-7.4-5.2-10.1-4.8l-0.6 0.8c1.3 2.1 12.4 12.5 12.4 12.6l-1 0.2c0.1 0.7 0.2 1.3 0.2 2 0.3 0.5 0.7 1 1.2 1.4l0.5 0.9c-1.4 0-1.4 0-4-1.1-1.3-0.3-2.6-0.4-3.9-0.3l-1-0.4c-0.3-0.5-0.7-1.2-1-1.7 1.4 0 2.7 0.4 4.1 0.4 0.3-1 0.6-2-3.1-6.4-0.1-0.6-0.1-0.6-17.4-13.9-0.8-0.6-1.1-0.8-1.4-1.1-5.6-4.7-5.9-5-13.7-9.5-2.2-1.6-4.4-3-6.5-4.4 0.4-0.1 0.8-0.1 1.3 0l-6.3-4.2c-1.4-0.1-2.6-0.9-4-1h-0.7l-1.1-0.2 0.2 1-1 0.2c1.9 2.1 9.3 8.2 9.4 8.3-0.7 0.7-0.9 0.7-1 0.7l0.6 1c0.8 0.6 0.9 0.7 1.1 0.9l0.8 0.6c0.3 0.2 0.6 0.3 1 0.3 1.1 0.5 5.4 2.9 5.8 4.5 1.3 2.5 3.8 3.6 12.2 7.3 3.1 1.7 3.1 1.7 6.4 5h-1c-1 0-1.9 0-21.5-8.9-1-0.1-2.1-0.2-3.1-0.2-1-0.4-1.9-0.9-2.8-1.5-1.2-0.1-2.1-0.1-3.1-0.1-2.4-0.8-4.5-2.2-6.9-3-0.9-0.6-1.9-1-2.9-1.4-0.3-0.1-0.7-0.1-1-0.1v1c5.1 4.7 13.5 4.2 17.5 10.6-0.7 0.7-0.9 0.7-1.1 0.7 0 1 0.7 1.8 0.9 2.8l-0.9-0.2c-3.9-4.2-3.9-4.2-4.5-4.6-0.3-0.1-0.7-0.2-1-0.2l-0.3 1 0.5 0.9-0.8 0.5h-0.7l-1-0.2c19.6 21.5 36.7 45 51.2 70.2 77.3 0.4 118.6-1.3 115.8-4.2l-2.1-2.2c-32.7-31.8-32.7-31.8-50.8-45.8-34.3-25.1-39.7-28.9-57.6-38.4m83.6 371.6l0.3-0.2c-0.1-1.4-0.4-2.8-1-4.2-0.5-0.8-1.4-0.5-2.1-0.8l-2-1.3c-0.7-1.4-0.1-2.9-0.8-4.3-1.5-3.1-3.5-3.5-4.6-3.4-3.2 0.2 0.1-4.6-1.3-6.7l-2.4-1.5h-2.2c0.3 3.6 0.3 3.6-0.4 4.7 0.5 13.4 0.7 26.7 0.6 40.2 0.2-0.1 0.2-0.1 1.2 0.1h1.3c0.4 0 0.8-0.1 1.1-0.2 0.2-0.9 0.4-2 0.6-2.8l0.6-1.5v-0.4c-0.2-2.1 1.7-5.2 3.2-5.4h0.5c0.6 0.6 0.8 1.6 1.8 1.9 1-4.1-0.3-8.5 1.3-12.5 0.2-0.5 0.3-0.7 2-0.7 0.9-0.2 1.7-0.5 2.3-1m142.9-42.8c-2.4-13.6-5.4-31.7-8.5-45.1 1 3.8-54.7 6-157 5.4 2.1 14.5 3.7 29.3 4.9 44.4 1.5 2.4 1 5.9 4.3 7.1h6.2c3.6-1.1 4.6 2.7 7.1 3.7h5.6c0.7 0.3 1.6 0.8 2.4 1.1h8.8l6.3-1.5h5.7c0.1 0 9.2 8 9.7 14.5 0.4 0 0.9 0.1 1.3 0.1 0.7 1 1.3 2.1 1.8 3.2h1.9c1.3 0.1 1.9 0.2 5.6 2.8-8.5 0.4-4.2 4.9-4.2 4.9 3.4 2.4 2.8 8.8 8.6 8.9 2.7-3.3 2.7-3.3 3.5-3.6 0.2-0.8 0.5-1.8 0.7-2.5l1.2-0.6c3.8 2.7 4 16.9 4 17v4.1c-2.3 16.6 7.8 31.5 6.4 47.9 0 0.5-0.1 1-0.1 1.5-1.7 9.1 2.1 17.8 2.6 26.7 0.4 0.7 0.7 1.5 1.1 2.3l1.2 0.2c5.9-4.9 5.9-4.9 13.4-37.7 0.2-2.8 0.4-5.6 0.6-8.5 0.4-8.4 0.4-8.4 1.7-10.1 7.9 0.5 14.4-26.3 14.5-26.6 0.1 0 0.1 0 2.8-5.4l0.8-0.2h0.3c1.3-1.2 1.3-1.2 1.5-9.9 0.6-0.9 1.6-1.3 2.6-1.2l0.8 0.9c0.3 0.1 0.6 0.2 0.9 0.2 0.8-1.9 2.4-3.4 2.6-5.6 0.8-0.2 1.7-0.3 2.5-0.3-0.1-1.5-0.2-3-0.2-4.5l1.2 0.2c1.9 4.1 2.5 9.5 3.7 18.4 0.8 2 1.5 4 2.1 6.1v1.8c-0.1 1.3-0.2 2.7-0.1 4.1v0.5l1.2 0.1c3.3 6.5-2.3 13.3 1 19.8 0.3-0.1 0.7-0.1 1-0.2 0.5-1.2 1.1-2.3 2-3.3 0.3-0.6 0.4-1.2 0.3-1.8 0.1-0.5 0.1-1 0.1-1.5s0.2-0.9 0.3-1.3c4.1 3.9 1.9 20.7-2.1 51.1l-0.3 2.1c-1.5 7.1 0.2 14.5-1.1 21.6-0.3 1.3-0.3 1.4-0.3 1.5-0.7 3.9-0.9 7.9-1.6 11.8-0.8 3.5-1.5 6.1-2.1 8.6-0.6 3.5-1.8 10.7-1.2 16.5h0.2c0.8-1.8 1.2-3.6 1.3-5.6 0.5-3.5 4.4-19.5 4.5-19.6 0.3-1.1 0.4-1.6 0.5-2s0.1-0.9 0.2-1.2c0.2-0.7 0.3-1.1 0.4-1.6s0.2-0.9 0.3-1.3c0.3-1.4 0.5-2.4 0.8-3.4-0.9-1.4-0.9-15.7-0.1-20.7 0.1-0.6 0.2-1.3 0.2-1.9 0.4-1 0.2-2-0.3-2.9 0.3-2.5 0.8-5 1.1-7.5 0.5-2.8 3.7-19.2 3.8-19.3 1.4 2.5 0.3 5.2 0.8 7.7 0.3 0.4 0.3 0.4 0.4 0.4l0.5-1.1c1.2 4.9 1.2 4.9-1.7 31.4 6.7-24.5 6.7-24.5 8-36.7 0.2-1.8 0.4-3.6 0.5-5.4 1-10.8 1-10.8 0.4-22.6-0.7-7.7-0.9-25.9 0.4-35.9 0.8-0.1 0.8 0.5 0.8 1.1s0 1 0 1.3c0.1 3 0.2 5.8 0.2 8.5 0 3.8-0.4 7.6-0.4 11.4 0.4 0.8 0.7 0.8 0.8 0.6 0.2-11 0.1-11.2-0.1-13 0-3-0.2-6.1-0.3-9.1l0.2-0.1v-3.9c0-0.3 0-0.7 0.1-1-1-10.9-1.6-25.5-3.3-36.4m-532.9-243.6l0.1-0.3-2 0.6c-0.8 0.4-1.4 1-2.1 1.4l-1 0.2-0.1 0.1-0.7 1c-0.8 0.5-1.5 1.1-2.2 1.7-0.3 0.4-0.5 0.9-0.6 1.4l0.8 0.6c1.5-0.7 1.5-0.7 1.8-1l1.6-1.5h0.4c0.6 0.1 1.2 0 1.7-0.2l0.3-1c0.3-0.4 0.8-0.6 1.1-1l0.2-0.3c0.3-0.5 0.6-1.1 0.9-1.6m30 48.5c0.2-0.8 0.3-1.6 0.3-2.4-1.1-0.7-1.6-2.1-1.2-3.3-0.5-0.8-1.4-1.1-2-1.6l-1.1 0.3c-0.1 0.9-0.1 2-2.2 3-1.4 0.7-1.4 0.7-1.1-6.6-1.1-0.1-2.2-0.1-3.3-0.1 1.5-4.5 1.9-5.7-1.5-6.3-0.2-0.4-0.3-0.7-0.3-1.1l-1-0.4c0.5-1.5-0.1-1.9-1.4-2.9l0.1-0.9c0.4-1.1-1.2-4.3-2.5-4.4-3.8-0.4-3.8-0.4-4.6-1.8 2.1-2.7 2.1-2.7 4.8-3.1 0.1-0.4 0.2-0.7 0.4-1.3 0.3-1.9 2.6-1.8 3.2-3.4 0.4-1.5 0.7-2.9 1.1-4.3-3.3-0.1-6.7-0.2-9.9-0.5 2.3-2.9 2.3-2.9 2.4-3.4 0.4-1.9 2.6-1.6 3.5-2.8-0.4-0.9-0.4-0.9-1.1-1h-1-1.6c-1.6 0.4-3.3-0.6-4.9 0.1-0.4 1.6-1.6 2.7-2.4 4.1-0.6 1.2-0.7 2.5-1.1 3.7-1 0.1-2 0.1-2.9 0.1-0.7-0.2-0.5-1.1-1.2-1.3l-0.9 0.1c-1.9 0.5-1.9 3.6-1.9 3.6 0.2 1.4 1.8 1 2.7 1.6l-0.7 0.9c-0.1 0.4-0.2 0.7-0.4 1.2-0.6 1 0 3.2-1.7 3.3-3.1 0.1-3.1 1.3-3.2 2.2l-0.1 0.8h2.4c0.5-0.5 1.2-0.5 1.8-0.1 0.2 1.6 0.2 1.6 0.5 2 0.8 0.1 1.5 0 2.2-0.2 0.1-0.7 0.1-0.7 1-1.9l0.7 1.1c-0.8 1.2 0.4 2.6-0.2 3.8s-2.3 0.4-2.8 1.7c-0.2 0.6-0.2 0.6 0.2 2l5.4 0.2 0.8-1.1c2.9 1.7-0.9 5.7 2.3 7.2l0.6 0.3c-0.4 0.9-1.1 2.2-0.9 3.1 0.4 1 0 2.2-1 2.6h-0.1c-2.3 1.3-3.8-1.2-5.8-1.2h-0.5c-1-0.1-1-0.1-2.2 1.1l-0.7 1.2c-0.7 0-1.4-0.1-2.1-0.1l-0.6 1.1c1.6 1.3 3.6 0.4 5.4 0.8-0.1 0.8-0.3 1.6-0.8 2.3-0.4 0-0.9 0-1.3 0.1-3.5 2.1-3.5 2.1-3.6 2.1h-0.7c-0.6 1.6-0.9 2.2-0.2 3.5 1.9 0.1 3.7-1.8 5.6-0.3 1.8 1.3 4-0.4 5.7 0.9 0.1 1.1-0.1 1.8-0.8 2.1-1.5 0.5-3 0.7-4.6 0.4-1.4-0.1-1.7 1.5-2.8 1.8s-2.3 0.2-3.4 0.4c-0.8 4.1-0.8 4.1-5 5.3 1.3 1 1.3 1 4.6 0.2 1.5-0.7 1.5-0.7 1.9-1.6 0.4-0.1 0.4-0.1 2.4 0.8 1.1 0.1 2.3 0.1 3.4 0.1 0.5-2.6 0.7-2.7 1.3-3.2 2.3 0.4 4.7 0.2 7.1 0.5 1.7 0.2 1.8-2.3 3.5-2s2.2 2 3.8 2.2h0.7c1.8-0.5 3.7 0.6 5.4-0.6 1.9-1.5 1.9-1.5 2.2-1.5 0.9 0.2 1.9 0 2.6-0.5l0.5-1.2c-0.7-0.9-1.1-1.9-1.2-3 0-0.3 0.1-0.5 0.2-0.8 0.1-0.4 0.3-1.6 2-1.2 0.8 0.2 0.8 0.2 1.7-2.3 0.6-0.3 1.4-0.2 2.1-0.2m-51.5-18.7h-0.5 0.5m14.3 1.4c0.5-0.9 0.3-2-0.4-2.8-0.9-1 0.5-1.8 0.1-2.7-0.2-0.4-0.5-0.7-0.8-0.9-0.4-0.2-0.8 0.2-1.2-0.1l-0.7-0.8h-0.5c-1 0.1-2 0.4-2.9 0.7-0.5 0.2-0.5 0.8-0.9 1.1s-0.8 0.3-1.2 0.5l-0.9-0.6c-0.3-0.4 0-1.1-0.6-1.4s-0.5-0.3-3-0.1c-0.5 1.9-1.6 3.6-1.9 5.6-0.8 0-1.4 0.6-2.2 0.5s-1.6 0.4-2.4 0.6c-0.4 0.1-0.4 0.1-1.3-0.8l-1.3 0.2c-0.8 2.6-1.7 5.4-2.5 8.1 1.2 0.2 2.4 0.2 3.6 0.1-0.3 1.2-0.7 2.4-1.1 3.6-2.8 0.2-2.8 0.2-4.2 2l-0.2 0.3c-0.5 0.7-0.3 1.7-0.8 2.4-0.3 0.5-1.1 0.3-1.4 0.8l-0.4 0.6c-0.1 0.3-0.5 1.4 0.1 2 1.2 1.1 1.9 1.4 3 0.7s2.6-0.5 3.5 0.4c1.1-0.3 2.1-0.8 3-1.5 0.1-0.1 0.1-0.1 0.6-1.4 0.2-0.6 1-0.6 1.4-1l9.4 0.4c0.1-0.6 0.3-1.1 0.4-1.7 0.1-0.8-0.5-1.6-0.2-2.4 0.2-0.6 1-0.2 1.4-0.7 0.9-1.1 0.9-1.1 1.3-3.3 0.4-1.5 1-3 1.2-4.6 0.2-0.8 0.4-1.5 0.6-2.3 1.4 0.4 2.8-0.3 3.4-1.5m301.5 510c0.1-0.4 0.3-0.8 0.4-1.2l3.5-13.5c-0.1-0.7-0.8-2.7-5.6-4.5-1.4 4.7-1.4 4.8-1.6 5-0.9 1.1-0.9 1.1-7.8 5.5-1 1.2-1.8 2.5-2.4 3.9-0.2 1-0.3 1.3-0.5 1.6-0.7 0.8-1.7-0.2-2.5 0.5-1.3 1.2-1.3 3.3-2.8 4.4-3.8 2.8-8.2-0.4-12 1.2-1.2 0.5-2.5 0.4-3.4 1.4-1.2 1.4-0.7 3.3-1.6 4.8s-2.8 2.3-3.5 4c0 0.1-2.7 7.6-1.8 8.7s0.7 1.1 0.6 1.7c-0.4 1.4-0.9 2.7-1.4 4-0.5 0.7-0.9 0.5-1.6 0.2-0.5-0.2-0.5-0.2-3.9 3.4-1.8 1.9-1.3 5.2-3.8 6.8-0.5 0.2-0.9 0.6-1.2 1.1-0.1 0.4-0.3 0.7-0.4 1.1-0.5 1.8 0 3.7-0.5 5.5-0.3 0.7-0.5 1.5-0.8 2.2-0.5 2.1-1.1 4.2-2 6.2 2.2 0.2 4.4 0 6.6 0.2 0 0.6-0.1 1.1-0.1 1.7 5.1 2 10.8 0.6 14.5-3.4 3-3.1 3.2-7.6 5.6-11 1.5-2.2 4.2-3.1 5.6-5.2 2.1-3 2-6.9 4.2-9.8 1.5-1.8 3.9-1.6 5.6-2.8 1-0.6 2.4-0.5 3.1-1.6 1.5-2.3 0-5.3 1.7-7.6 1.1-1.5 2.8-2.7 3.7-4.5 0.3-0.8 0.6-1.6 0.9-2.4s0.2-1.6 0.3-2.4c0.2-0.4 0.3-0.8 0.4-1.2 1.1-1.7 3.4-2.2 4.5-4m38.7-172.4c0.4-2.3-0.2-4.6-1.7-6.4-8.3-0.6-14.2 8.9-23.1 5.5-0.9 0-1.8 0-4.8 0.1-6.7 1.1-9 0.5-12.7-1.1-3-6.5-3-6.5-3-9.3-0.7-0.4-1.7-0.9-2.4-1.3-0.7-2.1-1.1-4.3-1.3-6.5-20.6-16.9-38.4-31.5-34.2-46.8 0-1 0-2 0.1-5.4-0.2-1.8-0.8-3.6-1.6-5.3-0.4-0.6-34.3-63.9-34.6-74.9-3.4-2.8-8-3.2-11.4-6-1.1 0-2.2 0.1-3.3 0.3-1.5 0.8-3.5 1.7-5 2.5h-1.4c-20.1-4.4-38.4-15.8-59.8-15.2-0.5 15.9-0.5 15.9-1.7 17.6-0.8 0.1-1.9 0.2-2.6 0.3s-1.8 0-4 0c-4.6-0.9-6.4-6.1-11-6.9-4.6-0.1-9.3-0.2-14.9-2.5-2.4-9.4-16.8-9.8-17-9.8-7 0-7 0-15.4-26.3 1.4-1.2 1.4-1.2 6.8-3.2-0.2-0.8-0.5-1.9-0.8-2.7-2.7-0.7-5.1-2.1-7.7-2.9-19.1 1-19.1 1-27.9 5.8-5.2-4.4-13.8-11.6-23.2-1.2l-13.4-0.5c-0.5 0.9-0.5 0.9-16.3 8.5-0.4 0-0.9 0-1.9-0.1-5.3-1.5-11.7 0.7-16.2-4.1l-3.4-0.4c-2.1 3.3-3.1 9.9-3.1 10-2.6 1.7-3.3 2.2-10 1.4l-1.5 11.7c-3.3-0.1-6.6-0.3-10.3 1.8-1.5 6.2-3.6 12.2-4.6 18.5-0.2 1.7-0.4 3.4-0.5 5.1l-7.9-0.3c-1.5 7.8-10.3 12.9-14.4 12.6-5 9.2-12.7 17.1-15.6 27.6l-2.4-0.1-1.8 0.4-2.9 0.2c-1 16.4-1.8 16.7-8.2 19.1-0.3 0.7-0.7 1.7-1 2.4-0.3 1.9 0.1 3.9 1 5.5 9.9 2.1 9.9 2.1 10.7 4.1-3.2 6.1-3.2 6.1-3.5 24.4v5.4c-0.3 0.6-0.3 0.6-5.2 5.3 0.4 3.6 1.7 7 2.4 10.5v3c0.4 13.2 21.6 26.1 21.8 26.2-0.2 7.8-0.3 13.5 17 17.6 0.8 2.9 0.8 2.9 0.7 7.7 15.1 13.9 24.1 12.3 24.2 12.3 0.7-1.5 1.6-3.6 2.2-5.2 3.4-0.4 6.8 0.9 10.2 0.1 0.6 0 1.1 0 3.6 0.1 2.7 0 5.3 0.2 8 0.3 2.1 5.4 6.9 4.5 18.4 2.3 2.9-7.1 5.7-6.8 17.6-5.3h1.3c7.4-6.2 13.9-3.7 15.6-2.8 2.4 12.1 4.8 12.6 9.8 13.8l24.5 0.8c0 3.5-0.2 6.9-0.6 10.4 0 0.2-2.9 21.4-5.2 26.3h-2.5c-0.3 0.8-0.8 1.7-1.1 2.5 18.8 10.4 19.3 32.2 30 47.7-0.2 0.7-0.5 1.6-0.7 2.3 0 0.9 0 1.7-0.1 2.6 0.4 5 0.8 5.2 3.7 6.5 0 14.3-12.5 24.6-12.8 38.8-0.2 7.8 0.5 8.2 5.1 10.9 0.7 7.3 0.9 9.5 7.2 13.2 2.4 10.5 2.4 10.5 3.8 12.2-0.2 3.8-0.3 7.5-0.4 11.3 0 0.2 6.6 22.1 14.9 30.9-0.5 2.8-0.6 3.6 1.9 7.4-0.1 0.6-0.3 1.2-0.7 1.6-1.4 0.9-2.6 2.1-3.5 3.5 0.6 0.4 1.4 1 2 1.5l2 0.1c-0.4 3.2-0.4 3.7 3.4 5.7 3.1 0.1 6.3 0.2 10 0.2 4.5-1.5 4.5-1.5 7.9-2 4.6 0.3 9.3-0.2 13.8-1.3 0.3-0.7 0.6-1.6 0.9-2.2 11.3-1.6 11.3-1.6 12.8-5 0.3-0.1 32.5-15.9 28.8-32.9 0 0 14.8-8.4 20.3-10.9 1.1-5 1.1-5-0.4-21.9 14.3-11.5 33.7-16.4 43.1-33.9 0.3-1.2 0.6-2.5 1.2-4.7 0.4-1.8 0.4-3.6 0.1-5.4 1.4-5.2 2.3-10.6 2.4-16-5.4-8.2 1.6-17-1.2-25.3l0.2-1.3c14.2-48.9 78.4-58.6 88.4-111.1m-532.6 106.5c-0.5-1.5-4.7-14.4-10.3-17.5l-4.8-0.3c-7-3.3-8.9-17.4-18.8-13-2.5-0.1-4.9-0.5-7.3-1-2.8-3-3.2-3.4-7.1-3 0.3 1.2 0.6 2.9 0.8 4.1-5-1.2-5.3-2.1-5.4-4.7 0.5-0.4 1.1-1 1.6-1.4-8.4-7.6-10-7.9-11.7-8.4-0.3 0-0.6 0-1.6-0.6-2.8-2.2-2.8-2.2-5.5-2l1.5 6.6-3.3-0.3c-0.2-0.9-0.4-1.8-0.7-2.9 0.1-1.3 0.3-2.6 0.7-3.8 0.2-0.4 0.5-0.9 0.7-1.2-0.9-2-0.9-2-6-5.1l-0.9-0.1c-0.6 0-1.1 0-1.7 0.2 0.9 4.2 0.9 4.2 0.2 6.1l-2-0.4c-0.2-1-0.5-1.9-0.7-3.7 0.7-1.2 1.6-2.3 2.5-3.2-1.2-9.5-1.3-9.6-2.7-12.1-0.6-0.1-1.4-0.2-2-0.3-0.5-2.6-1-5.2-1.8-8.6-2.1-6.7-7.4-11.3-11.1-17.1-1.3-0.3-2.5-1-3.4-1.9-0.4-0.4-0.9-1-1.3-1.3-1.2 0.3-2.7 0.8-3.8 1.2-0.4 0-0.8 0-1.2-0.1 0 0-11.1-15.5-13.6-19.5 0-0.5-0.1-1-1.6-2.8-1-2.4-1-2.4-1.3-6-0.3 0-0.7 0-1 0.1-0.4 0.4-1 0.9-1.5 1.4-1.6-1.5-1.6-1.5-2-5.7 0.3-0.6 0.6-1.4 0.9-2-0.7-1.1-1.6-2.1-2.5-3l-1 2.5c-0.1 0-0.2 0-0.6-0.5-0.6-0.2-1.3-0.5-1.9-0.8 0 1.2-0.1 2.9-0.1 4.2l-1.6 1.3c-1-3.8-1-3.8-2.8-5.4-0.8-0.1-1.6-0.2-2.4-0.5-0.4-0.4-1-1-1.4-1.5 0-2-0.6-4-1.7-5.7-0.4-1.2-1.3-2.3-2.3-3 0 0.1 0 15.7-0.7 20.2-3-13.7-1.7-20-1-23.5l-0.2-1.5c-0.3-0.1-0.6 0-0.9 0-0.8 2.1-0.8 2.1-0.5 6-0.6-0.1-1.1-0.2-2 1.2-0.4 1.3-1 2.6-1.9 3.6 0.2 2.9 0.5 5.7 0.7 9.9-5.5 16.6 6.5 31.3 4.9 47.5 1.2 4.9 1.2 4.9 1.4 7.4 0.4 3.8 1.1 7.5 2.2 11.2-0.2-0.1-0.3-0.1 0 1.5 2.7 9.9 2.7 9.9 3.9 12 0.3 0.9 0.5 1.9 1 3.4 0 0 0.6 5.3 4.6 15.8 0.1 0.5 0.3 0.9 0.9 2.5 3.2 9.2 7.9 17.8 11.7 26.7 0.4 1 0.8 2 1.7 3.9 6.2 12.6 20.7 42 34.1 52.1 2.5 4.3 5.1 8.5 8.1 13.3 0.7 1.1 1.6 2.5 2.3 3.6l0.3 0.6c0.3 0.4 0.5 0.8 1.6 2.3 0.4 0.5 0.9 1.3 1.3 1.8 0.1 0.2 0.3 0.4 0.6 1 2.2 3.5 2.2 3.5 3.3 5.1l0.2 0.3c0.3 0.5 0.7 1 2 2.6 0.3 0.5 0.8 1.2 1.2 1.7l0.5 0.6c0.2 0.4 0.6 0.8 0.8 1.2 1.2 1.9 2.5 3.7 4 5.4 0.3 0.4 0.6 0.8 0.8 1.1s0.6 0.8 1.1 1.6c2.8 3.9 5.3 7.9 8.3 11.5 0.1 0.1 9.8 12.4 12.8 15.9 0.2 0.2 0.4 0.5 0.9 1 7.9 8.5 16.4 16.4 24.1 25 0.7 0.7 1.4 1.3 3.4 3.1 0.5 0.5 1.1 1 1.6 1.5 25.1 21.9 25.1 21.9 29.5 25.1 5.1 3.6 9.8 7.7 15.1 11l0.4 0.1-10.3-7.4 0.6 0.1 4.4 3.2c0.5 0.4 1.1 0.9 1.6 1.2 2 1.4 4.1 2.9 6.6 4.6 2.1 1.5 2.1 1.5 12.3 8.1l-4-2.4c-0.4-0.2-0.8-0.5-1.8-1.2-0.6-0.3-1.3-0.8-1.8-1.2l0.4 0.4c1.2 0.8 2.4 1.5 3.8 2.4 2.9 1.7 5.7 3.5 8.6 5.2-1.6-0.9-3.2-1.8-4.9-2.7 1.2 0.8 2.4 1.5 4.2 2.7 5.9 3.7 12 6.9 18 10.3 0.2 0.1 0.4 0.2 1.8 1 1.8 1 3.6 1.9 5.4 2.8l1.2 0.6c4 2.1 8.3 4.2 11.5 5.7l1.1 0.6 1.5 0.6 0.4 0.1c4.4 2 4.4 2 5.6 2.6l1 0.4c8.7 3.9 18.8 7.7 19.5 7.9 0.4 0.2 0.9 0.4 1.3 0.5 2.2 0.8 2.2 0.8 5.9 2 0 0 0.1 0 1.8 0.6h1c-5.9-2.3-5.9-2.3-7.5-2.8-1-0.4-1.9-0.8-3.6-1.4-0.1 0-7.6-3.1-11.6-4.8-0.4-0.2-0.8-0.4-2.1-1-7.7-3.5-7.7-3.5-9.4-4.3-0.4-0.2-0.8-0.4-2.6-1.2l-5.2-2.6c-0.5-0.3-1.2-0.7-1.8-0.9 0.3 0 0.6 0.1-0.9-0.8-5.2-2.8-10.2-5.8-15-9.2-0.8-0.5-1.6-0.9-2.4-1.4l-1.9-0.7c-3.1-1.8-6.4-3.4-9.4-5.2-0.4-0.2-0.8-0.5-1.5-0.9-0.9-0.7-2.2-1.7-3.1-2.5l1.4 0.2c-2.1-1.4-4.3-2.8-6.7-4.5-3.2-2.6-6.1-5.5-9.4-8.1-0.3-0.3-0.7-0.5-2.5-1.7h-0.1l0.7 1.1c-1.5-0.8-1.5-0.8-6.8-4.7-1.1-0.9-2.2-1.7-3.3-2.6 0.8 0.2 1.5 0.5 2.2 0.9 0.6 0.3 1.3 0.8 1.9 1.2 0.6 0.1 1.2 0.1 1.3-0.3l-1.7-1.2c-0.4-0.3-0.7-0.6-2.4-1.9-1.5-1.5-1.5-1.5-6.4-5.3l-2.4-2c0.6 0.1 1.1 0.1 1.7 0 0.2 0 0.4 0 1.1-0.7 0.6 0 1.2 0.1 3.1 0.4-2.4-2.4-4.1-5.4-6.1-8l-1.4-1.7c-1-1-2-1.9-3-2.9-0.4 0-0.8-0.1-1.1-0.3l-3.2-3.2c-2.9-2.2-6.1-3.9-8.7-6.4l1.9 0.2c7 3.2 7 3.2 8.6 1-10.7-15.8-10.9-18.1-11-19.5 1.4 1.4 2.5 3.2 4.2 4.3-4.1-14.1-18.4-24.3-15.9-40.9 1.1 0.1 2.3 0.2 3.7 0.2 0.4-1.3 0.6-2.6 0.6-4l9.2 0.6c-0.6-1.3-1-2.6-1.2-4l0.6-0.2c-0.6-5.9-0.6-5.9-1.1-7.8 0.4-0.5 0.8-1.1 1.2-1.6-2-4.6-2.1-4.9-2.5-8.4l0.7-0.8c-0.6-3.6-2.5-6.8-3.6-10.2-0.3-0.8-0.6-1.6-0.6-2.4-0.2-2.8-0.9-5.6-1.9-8.2-0.2-0.6-0.5-1.2-1.4-3.1-0.3-0.6-0.7-1.4-1-1.9-0.4-0.9-0.7-1.9-1.8-4-1-2.6-1.9-5.1-2.8-7.7 0.2-0.1 0.2-0.1 3.8-10.5 0.6-0.2 1.3-0.5 1.9-0.7 0.2-0.6 0.5-1.4 0.6-2 0 0 1.9-8.4 2.6-12.7 0.6-3 0.6-3-0.3-6.6m-136-188.8l0.2-0.2c-0.2-0.6-0.8-1-0.9-1.7 0-1.5 0-2.9 0.2-4.4-1.9 1.1-1.9 1.1-2.8 1l-0.8-0.1c-0.5-0.5-0.4-1.4-1.1-1.7h-0.4c-0.7 0.6-0.3 1.6-1 2.2l-1.3-0.1c-0.3 0-0.4-0.5-0.5-1.2-0.2-1.1-0.3-1.3-0.6-1.7s-0.4-0.5-0.6-1.7c-0.1-1-0.2-1.1-0.5-1.4l-0.1-0.1-0.9 0.1c-0.7 0-0.8-0.8-1.4-1-0.3 0-0.3 0-1.2 0.6-0.2 3-0.4 6.1-0.5 9.2 0.6 4.8 0.9 5.5 1 5.6l0.7 0.1c0.5 0.2 0.5 0.2 1.1-2.2 0.1-0.6 0.6-1.1 1.1-1.4 0.6 0.1 0.6 0.2 0.8 0.6l0.3 0.4 0.4-0.3c0.3-0.4 0.3-0.4 0.9-0.2 1.1 0.2 2.2-0.1 3.1-0.8 0.4-0.5 0.5-0.5 0.9 0.1 0.6 0.7 1.3 1.2 2.1 1.4l0.9 0.1c0.7-0.1 0.6-0.8 0.9-1.2m-18.3 0.4c0.1-1.2 0.1-2.3 0.1-3.5l-0.3-0.7c-0.2-0.5-0.1-1.1-0.3-1.6l-0.1-0.2c-0.3-0.1-0.7-0.2-1-0.3 0 3.8 0 3.8 0.2 4h0.1l0.2-0.2c0.2 0.7 0.3 1.4 0.4 2 0.1 1-0.1 1.9 0 2.9l0.3 0.2c0.1-0.1 0.1-0.1 0.4-2.6m0-17.9c0.9 0.2 2 0.5 3.3 0.8 0-1.9-0.5-9-1-9.9l-0.5-0.1-0.8-0.2h-0.4c-0.1-0.3-0.1-0.3-0.4-9.6-0.1-1-0.1-2.1 0.1-3.1 0.1-1.3 0.1-1.6 0-1.9l-0.3 0.2h-0.1-0.1c-0.2 0.5-0.2 1-0.4 1.4v-0.8l-0.2-0.2-0.1-0.3c0 0.1-1.5 10.4-1 10.9 0.1-1.2 0.4-2.4 0.7-3.6 0.4 0.7 0.2 4 0.1 6.6 0 1.1 0.1 2.1 0.3 3.2l0.2-0.2c0.1 0.2 0.1 0.4 0.1 1.9 0 0.5-0.1 4.5 0.5 4.9m339.3-313.7c0.7-1.2 1.3-2.4 2-3.5 0-0.6 0.5-1.1 0.2-1.8-0.8-0.7-0.8-0.7-2.6-1 1.4-1.7 2.7-3.6 3.8-5.5-1.2 0-2.5-0.1-3.6-0.1-0.5 0-0.9 0.1-1.4 0.2-2.3 0.7-4.2 2.4-6.6 2.9-0.9 0.2-1.5-0.5-2.2-0.7-0.8-0.3-1.7-0.4-2.5-0.3-2.5 0.1-4.6 1.7-7 1.8l-2.9-0.1c0.4-0.6 0.8-1.1 1.3-1.7s0.8-1.1 1.3-1.7c0.3-0.6 0-1.2 0.2-1.8l-1.8 0.3c-0.4 0.6-0.9 1.1-1.3 1.7-0.1 0-6.7-3.8-11.2 3.9 1.1-0.2 2.2-0.4 3.3-0.7h1.7l0.9 2.3c0.3 1.2-1.1 1.4-1.6 2.2-2.6-1.1-5.6-0.7-7.4-0.4-0.5 0.8-1.1 1.8-1.6 2.7 0.6-0.1 1.2-0.3 1.8-0.4 1 0.1 2 0.1 3 0.2v0.4c-0.8 1.2-1.7 2.4-2.5 3.5l-0.5 1.9 1.5 0.1c1.7-0.1 3.3-0.3 5-0.2 0.5 0 1 0 1.7 0.1 1.5-0.1 1.5-0.1 1.4 1.5 0 0 0.1 1.8 2.6 1.6 1.2-0.1 2.4 0.5 3.6 0 1.4-0.5 1.4-0.5 4.1-3 0.4-0.4 2.8-1.6 2.8-1.6 0.9-0.4 2.1 0 3-0.6 1.2-1 2.6-1.7 4.1-2 1.4-0.5 1.4-0.5 7.4-0.2m-220.6 108.5l0.6-0.6 1-2.5h-0.4c-1.9 0.3-1.3-4.3-1.3-4.3 0.2-1 0.5-2.2-1.9-2.2-0.2-0.4-0.3-0.9-0.4-1.3 3-3.7 3-3.7 3.9-4.6 0.5-0.5 1.4-0.5 1.9-1.1 2.2-2.2 2.4-3.5 2.7-4.7l-0.7-0.3c-0.8 0.2-1.6 0.6-2.3 1.2-1.7 1.7-2.6 4.1-4.3 5.9-4 4.2-8.8 7.6-12.8 11.9-1.8 2-1.8 2-4.8 7.3 2.6 0.2 5.3 0.5 8.2 0.7 0.7 0.2 0.8 0.5 0.6 2.6-0.5 3.6-0.1 4.4 0.4 5.2 0.3-0.3 0.7-0.6 1.2-0.8s1.4-0.7 4-6.2c1.7-3.4 1.7-3.4 4.4-6.2m-17.5-9.7l0.2-0.2c-0.1-0.4 0.3-1.3-0.4-1.3s-0.8 0-0.8-0.3c-0.1-0.8 0-1.6 0.3-2.3 0.5-1.1 0.4-1.3 0.2-1.3h-0.7c-0.5 0.3-1.2 0.7-1.6 1.1 0.1 0.4 0.1 0.8 0.1 1.3-0.2 0.8-0.7 1.4-0.9 2.2l-0.8 4.4c0.2 0.6 0.6 0.5 4.4-3.6m329.2-189.1l0.8-0.7h-1.3l-0.6-0.1h-0.1l-1.2 0.2s-5.8 1-8.5 1.2h-0.2l-1 0.1c-2.1 0.4-4.2 1-6.3 1.4 2.4-0.7 4.9-1.2 7.4-1.8 0.6-0.2 1.2-0.4 2-0.6 1.6-0.2 3.3-0.6 4.9-1.2h-0.2c-3 0.1-5.9 0.9-8.9 1.2 2.3-0.5 2.3-0.5 3.6-0.8h0.6l1.2-0.2 0.3-0.3-1.3 0.1-1.9-0.1-2.4 0.3h-0.1l-0.8 0.1h-0.1l-0.4 0.1c-0.4 0-0.9 0.1-1.3 0.1 0.8-0.2 3.6-0.7 6.4-1 0.9 0.1 1.9 0.1 2.8 0.1l1.3-0.2h2.8c1.2-0.2 2.4-0.3 3.7-0.4 0.6-0.1 1.2-0.3 1.8-0.4h-0.8c0.2-0.1 0.4-0.3 0.6-0.4 0.3-0.1 0.8-0.2 1.2-0.2l-0.8 0.1c-0.2 0-0.3 0 0.3-0.3h-1.4l-1.2 0.1h-0.8l1.2-0.1s0.1 0 1.1-0.1c0.4 0 0.8-0.1 1.2-0.1 0.8 0 1.7 0.1 2.6 0.1 0.7-0.1 1.7-0.2 2.4-0.4l-0.1-0.1 0.2-0.1-1.2-0.2c-0.9 0-1.8 0.1-2.7 0.2h0.1l-0.2-0.1c-2.1 0.2-4.3 0.4-6.4 0.5-0.1 0-0.3 0 0.7-0.2l1.3-0.2-2.5 0.2-0.5-0.1h-0.8l-2.5 0.2-0.4 0.3h-0.3c-0.2 0-0.4 0.1-0.6 0.1h-0.6l-0.5 0.1c-1.2 0.1-2.3 0.3-3.5 0.4l0.4-0.1 0.6-0.1 0.6-0.1h0.2l0.3-0.1h0.7-0.7l-0.6 0.1-1.8 0.2-0.6 0.1-1.6 0.2h-0.4 0.1-0.1l-0.4 0.2-1.2 0.2-1.7 0.2-0.7 0.1-0.6 0.1-0.6 0.1-2 0.3 0.3-0.1h0.2c0.2-0.1 0.4-0.1 0.6-0.1l0.3-0.1 0.6-0.1c0.4-0.1 0.9-0.2 1.3-0.3h0.1l0.5-0.1h0.3l0.6-0.1h0.4l1.3-0.2h0.6-0.2l0.9-0.2-1.2 0.1-3 0.2h0.1-0.3l-1.5 0.2-0.4 0.1-0.8 0.1c-0.5 0.1-1.2 0.2-1.8 0.3l-0.6 0.1c-0.6 0.1-1.4 0.2-2 0.3l-0.9 0.1h-0.1 0.2l0.6-0.1 0.4-0.1 0.6-0.1h0.3l0.5-0.1 0.6-0.1 1.6-0.3 0.3-0.1 0.4-0.1 1.3-0.2h0.1l0.3-0.1 0.4 0.1 0.8-0.1 0.6-0.1 0.5-0.1h-0.2l-2.2 0.3c-1.3 0.2-2.6 0.4-4 0.5l-0.8 0.1-0.7 0.2-0.7 0.1-3.5 0.5-0.9 0.1h-0.4l1.2-0.2 0.9-0.1 1.3-0.2 2.3-0.3 0.7-0.1 0.7-0.1 0.7-0.1 0.6-0.1 1-0.1 0.6-0.1 0.6-0.1c0.6-0.1 1.4-0.1 2-0.2h0.4l0.6-0.1h0.5l0.5-0.1-0.8 0.1-1.3 0.1-0.8 0.1h-1.2l-0.4 0.1h-0.8 0.1-0.8-0.8-0.8-0.7l-0.7 0.1-0.7 0.1h-0.2-0.2l-0.4 0.1-0.7 0.1-0.7 0.1-0.6 0.1-0.8 0.1-0.8 0.1h0.2-0.3l-1.2 0.2h-0.3l-1.2 0.2-0.7 0.1h-0.2l0.3-0.1h0.1l0.7-0.1 0.6-0.1 0.5-0.1 0.4-0.1 0.5-0.1h0.1l1.1-0.2 1.1-0.2 0.6-0.1 0.7-0.1 0.7-0.1 0.5-0.1h-0.7l-0.4 0.1h-0.4l-0.6 0.1h-0.2l-1.4 0.1c-1 0.1-2 0.2-3 0.4l-0.6 0.1-0.7 0.1-0.7 0.2c-1.9 0.2-3.8 0.5-5.7 0.8l0.1-0.1 0.5-0.1 0.7-0.1-0.1-0.1-2 0.3c-1.3 0.1-2.5 0.3-3.7 0.5-0.7 0.1-1.6 0.2-2.3 0.3l-0.6 0.1h-0.6l-0.6 0.1-0.6 0.1-0.6 0.1h-0.2l-0.9 0.1h-0.6-0.2c-0.8 0.1-1.8 0.3-2.6 0.4l-0.7 0.1-2.4 0.4-0.5 0.2-0.5 0.1-0.7 0.1h1 0.2l1-0.1-3.8 0.7-0.7 0.1-0.7 0.1-0.7 0.1-4.2 0.9c-0.8 0.2-1.7 0.4-2.5 0.5l-0.7 0.1-0.8 0.1-1.2 0.2-0.9 0.1 0.1-0.2 0.3-0.1-1.2 0.1-1 0.2-1.2 0.2c-0.4 0.1-0.9 0.2-1.2 0.2l-0.4 0.1c-0.1 0-0.2 0-1.2 0.1l-1.3 0.1-0.4 0.1h-0.2l-0.4 0.1-0.8 0.2-0.7 0.2-0.7 0.2-0.8 0.1-0.4 0.1h-0.5c-3.2 0.7-6.3 1.7-9.5 2.6l0.5 0.1-1.2 0.4-0.1 0.1-1.2 0.5h0.2l1.1-0.2 0.4-0.1c0.4 0 0.9 0 1.3-0.1v0.1h0.1c-0.9 0.3-1.9 0.5-3 0.9-0.4 0.1-0.9 0.2-1.3 0.3l-0.4 0.1c-0.7 0.1-1.5 0.4-2.1 0.5h-0.1l0.2-0.1h-0.1l0.4-0.1 0.1-0.1h-0.1-0.4l-1.1 0.2h-0.1l0.5-0.3h0.2c-0.6 0.1-1.4 0.4-2 0.5h-0.3c-1.1 0.3-2.2 0.6-3.3 1l-0.6 0.2c-0.9 0.5-1.8 0.9-2.8 1.2l-0.6 0.2-0.6 0.2-0.7 0.2-0.6 0.2-0.5 0.2-0.6 0.2-0.5 0.2-0.7 0.2-0.3 0.1-0.2 0.1-0.3 0.1-0.8 0.4-0.2 0.1-0.6 0.2-0.4 0.3h0.1l0.5-0.2 0.6-0.2c0.7-0.3 1.8-0.7 2.6-0.9v0.3l-0.2 0.1-0.3 0.2 0.2-0.1c0.5-0.1 0.9-0.3 1.4-0.4h0.3l-0.5 0.2v0.2l0.7-0.2 0.4-0.1 0.4-0.1h0.4 0.2l0.7-0.2 1.1-0.3-1.1 0.5-0.2 0.1 0.3 0.1h0.1l-0.9 0.5-0.6 0.2-0.2 0.1-0.1 0.1 0.6 0.1v0.1l-0.9 0.5-0.2 0.3h0.2l-1.7 0.7-0.3 0.3v0.1l-1.4 0.6-4.4 1.7-1.1 0.5-0.5 0.3-0.5 0.3-0.1 0.1h0.2l-0.3 0.2-0.1 0.2-0.4 0.2-1.7 0.8-0.6 0.3c-0.5 0.3-0.9 0.5-1.4 0.8l-0.5 0.3-0.8 0.4-0.5 0.3c-0.8 0.5-1.7 0.9-2.5 1.3l-2.4 1.2v0.1l-1.3 0.8-1.2 0.5c-1.2 0.5-2.4 1.1-3.5 1.8-1 0.5-2.1 1-3.9 1.8-0.8 0.3-1.7 0.8-2.4 1.1l0.7 0.1c-0.9 0.5-1.8 0.9-2.7 1.2l-1.1 0.4c-1.5 0.8-3 1.7-4.5 2.4l-0.6-0.1c-0.8 0.4-1.6 0.8-2.7 1.5l-0.8 1c0.1 0 0.2 0 0.4 0.4 0.5 0.1 1.1 0.1 1.7 0.2 2.2-1.2 2.2-1.2 3.6-1-3.1 1.9-3.1 1.9-3.8 3.2h0.2v0.1c-0.7 1-1.6 1.9-2.6 2.5l-1.2 0.7c-0.3 0-0.7-0.1-1-0.3h-0.7l-0.7-0.5 0.9-0.8-12.4 5.2c-0.1 0.8-0.1 0.8-1.8 3.4 3.3-1.7 3.3-1.7 4.9-1.5 1.2-0.7 2.3-1.5 3.2-2.5l-0.1-1.2 1.3-0.7c0.3 0 0.6 0.1 0.9 0.2l-0.1 1.1c0.3 0 0.5 0 1.1 0.6l-1 0.8c-0.2 0.1-0.4 0.2-1 0.6-1.1 0.5-2.2 1.2-3.3 1.7-0.4 0.2-0.8 0.6-1.1 0.9-0.5 0.6-1.1 1.2-1.8 1.7-1.1 0.7-2.1 1.4-3.2 2.2-0.4 0-0.8-0.1-2-0.1-0.8 0.4-1.6 0.7-2.5 1-0.4 0-0.8-0.1-1.1-0.2-1.7 1.3-3.6 2.3-5.7 3-1.7 1-3.8 1.4-5.4 2.6-0.6 0.4-1.1 0.8-1.6 1.2-10.1 8.9-10.1 8.9-10.6 10.7 0.8-0.3 1.8-0.7 2.5-0.9 0.1 0 0.3 0 0.2 0.6-0.6 0.5-1.4 1.1-2 1.5-0.4 0-0.8 0.1-1.2 0.2-7.1 5.2-7.1 5.2-7.6 6.8 2-0.4 3.4-2.3 5.7-2.2-1.4 1.1-2.7 2.3-4.2 3.6-6.5 4-11.2 7-17.7 21.8l0.9 1c-0.1 0.8-0.1 1.6-0.1 2.4 0.5 0 1-0.1 1.5-0.4 0.4-0.1 0.9-0.1 1.2-0.2 0.1 0 0.2 0 1 0.8-0.5 0.7-1 1.4-1.4 2.1 0.5 0.6 1.1 1.3 1.6 1.9-0.4 0.7-0.6 1.5-0.5 2.3 2.5 0.2 5-0.8 6.6-2.7 0.3-0.3 0.6-0.6 1.4-1.5 13.9-15.6 16-15.9 17.2-16h0.9c3.6-0.3 5.8-3.1 8.7-4.6 1.4-1.5 2.9-3 4.6-4.6 2.8-1.5 2.8-1.5 12.5-9.3 1.3 0.1 2.7 0.1 4-0.1 0.9-1 1.9-1.9 3-2.8 0.7 0 1.4 0.1 1.7 0.5-1.9 1.7-1.9 1.7-2.3 3 3.5 0.6 5.5-2.2 8.3-3.3 0.2 0 0.4 0 1.1 0.1 2.2-0.3 2.2-0.3 3.4-1.4 2.2-1.5 4.8-2.5 7.1-3.9 1.2-0.3 1.2-0.3 4.4-2.5l1.8-0.5c0.4-0.4 0.8-0.8 1.2-1.1 3.5-1.7 3.5-1.7 5.5-3.7l0.2-0.1c0.2 0 0.4 0.1 0.6 0.1v0.1l0.1 0.1 0.1 0.1v0.3l0.1 0.1-0.1 0.4c0.6 0.3 1.2 0.5 1.8 0.6l0.4 1.2c9.8 0.5 17-6.5 25.8-9 1.4 0.1 2.7 0.1 4.1-0.1 3.3-1.4 3.3-1.4 4.5-2.6l-0.2-0.4c-0.7 0.3-1.6 0.7-2.3 1l-2.1 0.8c-0.1 0-0.2 0-1.1-0.8 0-0.4 0-0.9 0.1-1.3l-1.6-0.1c-0.4-0.1-0.9-0.3-1.3-0.5l-0.3-1.2 0.8-0.9c0.8-0.7 1.7-1.3 2.8-1.6h0.4c2.1 0.1 4.1-0.9 6.3-0.9-2.3 2.4-2.3 2.4-2.7 3l0.6 1 1.1-0.5c2.9-2.3 10.5-2 8.6-6.8 2.7-4.3 2.7-4.3 2.7-5.3h1.3v1.3c0.5 0 0.9 0 1.4-0.1 1.1-0.6 1.1-0.6 3.2-2.4 0.3-0.2 0.5-0.4 1.4-1.1 0.7-0.5 1.2-1.1 1.6-1.9-1.2-0.2-1.2-0.2-3.6 0.6-0.6 0-1.2 0-1.7-0.1 1.1-0.6 2.3-1.1 3.5-1.5v-1.2l1-0.4 2 0.1c-0.7 0.5-1.4 1.1-2 1.6 0.9 0.1 1.7 0.1 2.6 0 0.7-0.4 1.5-0.7 2.3-0.8 0.2 0 0.4 0 1.1 0.7 4.2-0.8 4.3-2.2 4.4-3.7-0.8 0.2-1.7 0.3-2.5 0.4 0.1-0.2 0.1-0.2 5.3-1.5 0.7-0.2 1.4-0.4 2.1-0.5h1c0.8-0.1 1.5-0.4 2.1-0.9l-0.5-1.2c0.9-1.3 0.9-1.3 3.8-3.3 0.7-0.2 1.5-0.3 2.2-0.3 1-0.7 1.9-1.5 2.7-2.4 0.5-0.5 1.2-1.2 1.8-1.7l-1.2-0.2v-1.2l1-0.7 0.5-0.3c1.1-0.4 2.3-0.6 3.5-0.6 0.2 0 0.5 0 0.9 1l-0.3 0.2c-2.8 1.5-2.8 1.5-4.4 3l0.9-0.2c1.8-1.3 3.7-2.6 6.4-4.2l1.2-0.5c0.1-0.1 0.2-0.2 0.6-1.3l-1.3 0.2c-0.4 0-0.8-0.1-1.2-0.1 0.9-0.5 1.8-0.9 2.8-1.2h0.9c0.8-0.3 1.5-0.7 2.1-1.2-1.1-0.4-1.1-0.4-4.8 0.3 1.1-0.7 2.2-1.2 3.4-1.7 0.4-0.1 0.4-0.1 6-2.6h0.9c1.2-0.6 2.5-1 3.8-1.2 0.1 0 0.2 0 1.2-0.3 0 0 3.6-1.6 13-3.9l0.8-0.3-2.1-0.1v-0.2c0.8-0.1 1.7-0.2 2.5-0.2h0.7c1.6-0.3 3.1-0.9 4.8-1.2h0.9c0.7 0.4 2 0.1 3.2-0.5m-20.7-3.3l3.9-0.4-1.7 0.1 0.5-0.1 3.5-0.3 3.4-0.3-1.6 0.1h-0.2l-2.4 0.1 3.3-0.2h-0.3l2.5-0.1c0.6-0.1 1.3-0.1 2-0.2-1.9 0.1-3.7 0.2-5.6 0.3 1.1-0.1 2.1-0.1 3.2-0.2-1.5 0.1-3.1 0.2-4.6 0.3l4.8-0.3 0.8-0.1c-1.3 0.1-4.1 0.2-7.8 0.5l4.1-0.3h-0.1l-3 0.2 0.7-0.1c-1 0-2.1 0.1-3.1 0.2l-4.5 0.3c-3 0.2-5.9 0.6-8.9 0.8 1.3-0.1 2.6-0.2 4-0.4l0.3-0.1c1.9-0.2 3.7-0.3 5.6-0.5h-0.7l2.6-0.2h-0.7l-7.6 0.6 1.9-0.2c-0.2 0.1-0.2 0.1-4.5 0.4h0.1l-3 0.3 0.4-0.1-3.2 0.4-0.8 0.1-0.8 0.1-4.5 0.5c-7.1 0.9-7.1 0.9-8.4 1.2l4.5-0.6 2.6-0.3 0.7-0.1-3.4 0.4-4.4 0.6-4.5 0.7h0.3l-0.6 0.1c1.7-0.3 3.5-0.5 5.2-0.7l-0.7 0.2h0.1l3.8-0.5 3.3-0.6 5.4-0.6-0.6 0.1h-0.5c-2.4 0.3-4.9 0.5-7.3 0.8h0.5l-0.7 0.1-0.3 0.1-3 0.4h-0.6l-1.6 0.2c-0.9 0-1.8 0.2-2.8 0.3l-0.8 0.1c-1.2 0.2-2.4 0.4-3.7 0.6l-0.7 0.2-2.2 0.4-3.7 0.6-1.3 0.3-0.8 0.1c3.2-1.3 6.7-1.2 10.1-1.9l1-0.2-4.1 0.6-3.3 0.6-4.4 0.8-5.9 1.2-2.5 0.5c-1.5 0.4-3.1 0.8-4.7 1l-4.3 1 6.1-1.4 1.1-0.3-0.7 0.1-1.1 0.2-2.5 0.5c-1.3 0.3-2.7 0.6-4 0.9l-2.9 0.6-1.1 0.3 0.7-0.1-3.2 0.7-3.9 1-0.4 0.2c2-0.4 3.9-0.9 5.9-1.4l-4.7 1.1-4 0.9h-0.4c2.2-0.6 4.4-1.1 6.6-1.8-3.5 0.9-7.1 1.9-10.7 2.7l-3.9 1-5.4 1.5-2.5 0.8 2.3-0.6c-0.6 0.2-1.3 0.4-1.9 0.7 0.9-0.3 2-0.6 2.9-0.8-1.3 0.4-1.3 0.4-2.1 0.7 0.4-0.1 0.9-0.2 1.2-0.3h0.1c-1.4 0.4-2.9 0.8-4.2 1.4l0.6-0.1h0.1c4.4-1.1 4.5-1.1 8.1-2.2l3.9-1.1-2.7 0.7 5.3-1.4 1.2-0.2 5.1-1.3 4.5-1.2h0.1l0.1 0.2c3.2-0.7 6.3-1.6 9.5-2.3l0.4 0.1s6-1.4 7.4-1.8l-2.6 0.5-2.3 0.4 3.6-0.8c2.2-0.4 4.3-0.8 6.4-1.2h0.2l-2.9 0.6-0.7 0.3c1.7-0.2 3.4-0.6 5.1-0.9l4.4-0.9h0.6l-3.1 0.6h0.6l2.5-0.4 4.9-0.9 1.6-0.3h0.3 0.2l3.4-0.5 2.1-0.2c4-0.6 8.1-1.1 12.1-1.5h0.7l2.3-0.3 3.1-0.4c-1.1 0.2-2.3 0.3-3.5 0.3l0.8-0.1h-0.5l3.3-0.4 1.7-0.1h0.6c1.5-0.1 3.1-0.2 4.6-0.4 0.7 0 0.7 0 5.6-0.5m-54.6 6.5c1.9-0.4 3.7-0.7 5.5-1 1.2-0.3 2.5-0.5 3.7-0.7l3.7-0.6c1-0.2 2-0.3 3-0.5 0.7-0.1 1.7-0.3 2.5-0.4l-2.2 0.3c0.1 0 6.8-1.1 12.6-1.9l8.4-1c-1.1 0.1-2.1 0.2-3.2 0.4h-0.1c-1.2 0.1-2.4 0.3-3.6 0.4h0.1c-2.5 0.3-4.9 0.6-7.4 1l0.5-0.1-0.7 0.1-4.8 0.7-2 0.3-4.8 0.8h-0.2c-0.8 0.1-1.6 0.3-2.5 0.4l-3.2 0.6-2.1 0.4 0.6-0.1 1.4-0.2h0.2c-1.9 0.3-3.6 0.7-5.5 1h0.2l-2 0.4-3.4 0.7-5.1 1.1-2.5 0.6 0.9-0.2-1.9 0.5 2.8-0.6h0.1c1.1-0.2 2.3-0.5 3.4-0.8l4-0.8-2 0.4c1.1-0.2 2.2-0.5 3.2-0.6l-0.9 0.2 3.2-0.6m-29.4 6.6c2.6-0.7 5.2-1.4 7.9-2l-1.3 0.3-4.9 1.3-1.7 0.4m-28.7 9.4l5.6-1.8 2.2-0.9 1.9-0.8-2.6 0.7-2.5 0.7-0.7 0.2 1.9-0.7h-0.2l5.4-1.7 5.3-1.6 5-1.5h0.2l-3.9 1.1-24.9 8 0.4-0.1 2.5-0.9c-4.8 1.7-4.9 1.8-5 1.9h0.1v0.1l1.4-0.4 2.5-0.8-2.7 1c2.9-0.3 5.4-1.7 8.1-2.5m-87.3 43.2l4.6-2.6 4.4-2.8c-1.4 0-1.4 0-6.8 3.1l-3.7 2.5-0.1 0.5 1.6-0.7m-27.7 15l-1.4 1-2.1 1.5 8.8-6.3-0.7 0.5-4.6 3.3zm-180 415.4l-0.3-4.8-0.9-4.6c-0.4-0.1-0.8-0.2-1.1-0.3l-0.6-0.6-0.8-1.1-0.5-3.5-0.8-7.3-0.4-5.7c-0.1-2.5-0.3-5-0.4-7.5l-0.2-9.4c0-2.2-0.1-4.3-0.1-6.5l-0.1-5.1-0.1-3.7v0.2c-0.1 11.3 0.8 26.4 1.2 37.8l0.7 8.2v-0.4l0.3 2.3c0.9 7.7 0.9 7.7 1.2 8.7v-0.4l1.3 5.9 0.8 2.8-0.8-5.9-0.3-3.7 1 1.1 0.6 3.7 0.3-0.2m212.3-421.2l3.3-2 4.1-3c-0.7-0.1-1.5-0.2-2.2-0.2l2.3-1.6 2.5-2.6-0.2-0.5 1.1-1.6-0.9-0.1 3-2.1 2.7-1.9-1.4-0.2-0.2-0.3c1.7-1 3.5-2 5.2-3.1l0.9 0.1 2.9-1.3 0.6-1.2 2.3-1.2 1.2-0.3 3-2.1 0.7-1 3.8-1.8 1.6-1.4h-1.2l2.7-1.5-0.3-0.3 0.4-0.4 3.3-1.3 1.2-1-2.7 0.8 4.6-2.5 2.9-1.4-0.1-0.2 3.6-1.6 2.1-1.3-0.6-0.2-3 1.3-0.9 0.2 0.8-0.5-3.7 1.6-0.5 0.1 4.6-2 4.5-1.8 5.9-2.6 5.4-2.2-0.2-0.1-4.1 1.5h-0.4l-2.7 1-5.4 2.2-5.7 2.5-3.7 1.6-6.8 3.3-0.7 0.2 6-2.8 8-3.6 5.4-2.3 5.7-2.3 4.6-1.8v-0.1l-0.9 0.5-6.6 2.6-7.9 3.3-13.7 6.2-0.8 0.3-0.4 0.2-4.3 2.1 1.1-0.6-1.1 0.5-2.4 1.2-3.3 1.7-0.1 0.1 1.2-0.6-3.3 1.7-2.8 1.6-1.6 0.8-4.5 2.4-3.1 1.8-8.5 4.7-5.9 3.5-4.5 2.7 1.9-1.2 7.2-4.3 4.4-2.5 5.5-3.1c-10.7 6-24.4 14.9-34.8 21.4l-0.8 0.5 1.6-1.1 4.4-2.9 3.6-2.4-0.1 0.1-3.3 2.2-3.6 2.3-6.5 4.4c-2.6 1.8-5.3 3.7-7.9 5.6l-1.7 1.2-3.5 2.6-0.4 0.3c-1 0.8-2.1 1.6-3.5 2.8l1-0.7 4-3-0.1 0.5-0.4 0.5-1.6 1.3 0.3 0.1 4.3-3.2 0.8-1 5.4-4.1 0.4-0.6 4.3-3.2 1.1-0.9c1.1-0.7 2.2-1.5 3.3-2.2l-0.8 0.7 2.4-1.6 2.7-1.8 0.1 0.1 4-2.5 4.1-2.4 3.5-2.1 3.6-2.3 6.1-3.8 1.2-0.4 4.7-2.6 4.6-2.7 2.3-1.4 3.7-2.2 0.2 0.1 2.6-1.3-0.4 0.4-2.7 1.6h0.6l1.6-0.7 4.5-2.6 1.1-0.4-5.1 2.9-0.2 0.4-4.9 2.8-0.6 0.6-3.5 2.2-1.4 1.2-4.4 2.8-1.2 1.2-4 2.9-5.4 3.4-6.5 3.5-6.2 3.7-5 3.7-2.3 0.6 0.7-1-0.5-0.1-4.9 2.9c-1.6 1.1-3.1 2.2-4.7 3.3l-0.5 1.1 0.9-0.1 2.7-1.8 1.8-1-0.4 0.7-1 1.7-5.2 4.9-3.1 2.6-3.4 3.5 1.1 0.2-4.1 4.7 1.8 0.5-1 2.2 3.3-2.7 4.5-5.9 2.2-2.3 2.9-2.7-1.6 2.6-2.7 4.6-1.5 2.7c1.6-1.4 3.2-2.7 4.8-4l5.2-3.4 1.4-2.3 6.5-5.5 0.8-2.1 7.3-6.9 3.2-1.7 2.9-1.5-6 6.3-4.4 4.1 0.4 0.8 6.5-4.5 3.9-1.5 2.8-1.8c0.4 0 0.8 0.1 1.2 0.2m-86.9 100.6l2.7-2.2 0.3-2.4 2.5-2.2 3.6-4.7-2.2-1.1 1.6-2.8-2.9-0.3-4.3 2.6-3.1 2.1-0.3-1.2 3-3.3 4-1.7 4.3-1.4 3.6-2.6-1.8-0.5-0.2-2.4-1.1-1.8 1.2-3.4 1.1-3.4 1.9-2.9 1.4-0.4 2.2-2.1 3-5 3.4-5.5 7-9.4 3.6-4.2-7 5.1c-1.6 1.5-3.2 3.1-4.8 4.7l-3.3 1.6-4.1 3.1-1.1-0.4 2.7-3.1 1.4-2.3-2.2 0.8 5.6-5.1c2.4-2.3 4.8-4.5 7.3-6.8l3.8-3.5-1-0.4 2-2.7 3.5-3.8 3.4-4.1-2.7 1.7-0.7-0.4 1.3-1.4-0.9-0.2-3.4 2.3-4.1 3.7-5.8 4.8-3.7 3.3-4.7 4.6-0.4-0.1-4.7 4.4-2.9 2.3-1.7 2.1-2.7 3.4-5.6 5.9c-2.2 2.2-4.3 4.5-6.4 6.8l-4.8 4.6-3.9 3.5-1.4 0.6-4.8 6.1c-2.2 2.5-4.3 5.1-6.4 7.7l-3.4 4.5-3 3.6-3.8 4.5-1.2 0.6 4.8-6.6 4.2-5.8c1.3-1.6 2.6-3.1 3.9-4.7l5.5-6.6 4.8-5.4 0.6-1.3 0.2-0.4 1.7-2 1.8-2c-7.5 8.1-16.7 19.5-23.8 27.8-14.3 18.2-14.3 18.2-38.2 57.2-11.6 20.8-11.6 20.8-29 62.8-4.3 12.1-9.1 28.5-12.8 40.7l-1 3.9v0.1l0.8-2.8 0.2-0.6-1 4.5-1.2 5.5c-0.5 2-1 4.1-1.4 6.2l-0.7 3.7-0.8 4-0.4 3-0.8 4.4-0.2 2.3-0.8 4.8 0.1 1.2 0.7-3.2 1.1-5.1 1-6.3 1.9-9.4 1.6-8.5c0.9-3.6 1.8-7.2 3-11.5 0.6-2.2 1.3-4.4 2-6.6l2.6-7.7 1.3-2.2 2.6-5.7 2.3-4.3 1.8-2.2 1.8-4.4 1.7-2.6 2.2-7.6 0.9-3.5 1.8-4 1.2-3.8 1.6-2.2-1.6 5.5 2.6-5.3 2.5-4.6 1.9-2.9 5.1-9.8c0.5 0.1 1.2 0.2 1.8 0.3l2.8-3 1.8-0.4 1.5-4 4-8 4.3-5.9 1.3 0.2 2.3-3.4 1.7 0.6 3.6-3.2 3.8-4.6c1.5 0.2 3.6 0.6 4.5 1.8-0.6 0.7-1.4 1.6-2 2.2-0.9-0.1-1.9-0.2-2.9-0.2-3.8 3.7-3.8 3.7-5.9 8.2l0.3 1.8 2.9-3 2-1.8 2.5-1.4 3.6-2.6 2.8-1 4.6-5.1 3.9-3.5 2.7-4.3-3.2 1.3-5.3 6.3h-2.8l-0.4-3 0.7-4.9 3.8-8 4.2-3.7 3.9-6.2-2.1-0.9-4 2-5.9 4.7-7.6 8.1-4.6 4.6 3.4-4.5 4.1-4.7 2.2-2.3-0.5-2.1c0.7 0.1 1.4 0.2 2.1 0.3l3.3-4.1 3.9-3.6 1.8-0.1 3.9-4.6 2.7-1.6 2.4 0.3 5 0.2 1.8 1.4 2.3-0.1 4.8-3.6 5.6-5 4.4-0.5 3.2-1.2"/>
					</g>
</svg>
