<svg xmlns="http://www.w3.org/2000/svg" viewBox="0 0 188.15 155"><defs><style>.cls-1{fill:#b3b3b3;}.cls-2{fill:#fff;}.cls-2,.cls-3{stroke:#dbdbdb;stroke-miterlimit:10;stroke-width:4px;}.cls-3{fill:#dbdbdb;}.cls-4{font-size:32.69px;fill:#3caf49;}.cls-4,.cls-5,.cls-6,.cls-7{font-family:FontAwesome, FontAwesome;}.cls-5{font-size:52.54px;fill:#4d4d4d;}.cls-6,.cls-7{font-size:21.79px;}.cls-6{fill:#ff6464;}.cls-7{fill:#ffd782;}</style></defs><title>logistics</title><g id="Layer_2" data-name="Layer 2"><g id="Layer_14" data-name="Layer 14"><polygon class="cls-1" points="134.59 149.32 51.11 149.32 67.06 111.26 121.08 111.26 134.59 149.32"/><rect class="cls-2" x="2" y="2" width="184.15" height="115.4" rx="2.34" ry="2.34"/><path class="cls-3" d="M2,101.44H186.15a0,0,0,0,1,0,0v4a12,12,0,0,1-12,12H14a12,12,0,0,1-12-12v-4a0,0,0,0,1,0,0Z"/><rect class="cls-3" x="47.42" y="145.63" width="90.85" height="7.37" rx="0.91" ry="0.91"/><text class="cls-4" transform="translate(49.48 67.41)"></text><text class="cls-5" transform="translate(95.4 73.92)"></text><text class="cls-6" transform="translate(79.06 48.73)"></text><text class="cls-7" transform="translate(79.06 75.97)"></text></g></g></svg>